<svg width="61" height="56" viewBox="0 0 61 56" fill="none" xmlns="http://www.w3.org/2000/svg">
<g id="Outline">
<path id="Vector" d="M59.5 27H51.5C51.2348 27 50.9804 27.1054 50.7929 27.2929C50.6054 27.4804 50.5 27.7348 50.5 28V29H48.5V1C48.5 0.734784 48.3946 0.48043 48.2071 0.292893C48.0196 0.105357 47.7652 0 47.5 0H13.5C13.2348 0 12.9804 0.105357 12.7929 0.292893C12.6054 0.48043 12.5 0.734784 12.5 1V28H10.5V27C10.5 26.7348 10.3946 26.4804 10.2071 26.2929C10.0196 26.1054 9.76522 26 9.5 26H1.5C1.23478 26 0.98043 26.1054 0.792893 26.2929C0.605357 26.4804 0.5 26.7348 0.5 27V45C0.5 45.2652 0.605357 45.5196 0.792893 45.7071C0.98043 45.8946 1.23478 46 1.5 46H9.5C9.76522 46 10.0196 45.8946 10.2071 45.7071C10.3946 45.5196 10.5 45.2652 10.5 45V44H11.7C11.576 44.3193 11.5084 44.6576 11.5 45C11.5 45.7956 11.8161 46.5587 12.3787 47.1213C12.9413 47.6839 13.7044 48 14.5 48C14.5 48.7956 14.8161 49.5587 15.3787 50.1213C15.9413 50.6839 16.7044 51 17.5 51H17.83C18.1065 50.9977 18.3813 50.9576 18.647 50.881C18.8338 51.4927 19.2115 52.0284 19.725 52.4098C20.2384 52.7911 20.8605 52.998 21.5 53H21.83C22.0591 52.9972 22.2872 52.9687 22.51 52.915C22.51 52.943 22.5 52.971 22.5 53C22.5 53.7956 22.8161 54.5587 23.3787 55.1213C23.9413 55.6839 24.7044 56 25.5 56H25.83C26.4798 56.0044 27.1128 55.7934 27.63 55.4L29.93 53.679C30.3398 53.8851 30.7913 53.9949 31.25 54H31.5C32.1423 53.998 32.7671 53.7899 33.2823 53.4063C33.7975 53.0226 34.1759 52.4838 34.362 51.869C34.6466 51.9558 34.9425 52 35.24 52H35.5C36.1431 51.9986 36.7686 51.79 37.2838 51.405C37.799 51.0201 38.1764 50.4793 38.36 49.863C38.648 49.9534 38.9481 49.9996 39.25 50H39.5C39.8918 50.0032 40.2802 49.9276 40.6422 49.7776C41.0042 49.6277 41.3323 49.4064 41.607 49.127C41.74 48.9979 41.8602 48.8562 41.966 48.704C42.3716 48.8996 42.8157 49.0021 43.266 49.004H43.5C44.2956 49.004 45.0587 48.6879 45.6213 48.1253C46.1839 47.5627 46.5 46.7997 46.5 46.004V45.864C46.5001 45.6872 46.484 45.5108 46.452 45.337L47.118 44H50.5V46C50.5 46.2652 50.6054 46.5196 50.7929 46.7071C50.9804 46.8946 51.2348 47 51.5 47H59.5C59.7652 47 60.0196 46.8946 60.2071 46.7071C60.3946 46.5196 60.5 46.2652 60.5 46V28C60.5 27.7348 60.3946 27.4804 60.2071 27.2929C60.0196 27.1054 59.7652 27 59.5 27ZM14.5 2H46.5V28.413C45.778 27.6506 44.9082 27.0434 43.9436 26.6285C42.979 26.2136 41.94 25.9998 40.89 26H36.75C35.0723 25.9946 33.439 26.539 32.1 27.55L29.6 29.428L29.442 29.286C27.7957 27.8098 25.6612 26.9955 23.45 27H20.62C19.7288 26.9982 18.8496 27.2054 18.053 27.605C17.534 27.8659 16.9609 28.0012 16.38 28H14.5V2ZM8.5 44H2.5V28H8.5V44ZM13.5 45C13.5014 44.845 13.5381 44.6924 13.6074 44.5537C13.6768 44.4151 13.7768 44.2941 13.9 44.2L16.576 42.2C16.7461 42.0689 16.9552 41.9985 17.17 42H17.5C17.7652 42 18.0196 42.1054 18.2071 42.2929C18.3946 42.4804 18.5 42.7348 18.5 43C18.4974 43.1548 18.4601 43.307 18.3909 43.4454C18.3217 43.5839 18.2223 43.7051 18.1 43.8L15.422 45.806C15.2516 45.9345 15.0434 46.0028 14.83 46H14.5C14.2348 46 13.9804 45.8946 13.7929 45.7071C13.6054 45.5196 13.5 45.2652 13.5 45ZM17.83 49H17.5C17.2348 49 16.9804 48.8946 16.7929 48.7071C16.6054 48.5196 16.5 48.2652 16.5 48C16.5011 47.845 16.5378 47.6922 16.6071 47.5536C16.6765 47.4149 16.7767 47.2939 16.9 47.2L19.578 45.194C19.7484 45.0655 19.9566 44.9972 20.17 45H20.5C20.6565 44.9981 20.8113 45.0334 20.9515 45.1031C21.0917 45.1727 21.2134 45.2747 21.3064 45.4006C21.3995 45.5265 21.4613 45.6726 21.4868 45.8271C21.5123 45.9816 21.5007 46.1399 21.453 46.289L19.7 47.6C19.4231 47.813 19.1862 48.0734 19 48.369L18.418 48.805C18.2489 48.9331 18.0421 49.0016 17.83 49ZM21.83 51H21.5C21.2348 51 20.9804 50.8946 20.7929 50.7071C20.6054 50.5196 20.5 50.2652 20.5 50C20.5013 49.9025 20.5171 49.8058 20.547 49.713L22.3 48.4C22.5742 48.1877 22.8088 47.9287 22.993 47.635L23.562 47.21L23.602 47.177C23.7681 47.06 23.9668 46.9981 24.17 47H24.5C24.7652 47 25.0196 47.1054 25.2071 47.2929C25.3946 47.4804 25.5 47.7348 25.5 48C25.5003 48.204 25.4374 48.4031 25.32 48.57C25.2579 48.656 25.1842 48.7331 25.101 48.799L22.422 50.806C22.2516 50.9345 22.0434 51.0028 21.83 51ZM29.101 51.8L26.422 53.807C26.2515 53.9352 26.0433 54.0031 25.83 54H25.5C25.2348 54 24.9804 53.8946 24.7929 53.7071C24.6054 53.5196 24.5 53.2652 24.5 53C24.5011 52.8449 24.5377 52.6922 24.607 52.5535C24.6764 52.4148 24.7766 52.2939 24.9 52.2L27.579 50.193C27.7492 50.065 27.9571 49.9971 28.17 50H28.5C28.7015 49.9994 28.8984 50.0597 29.065 50.1729C29.2317 50.2862 29.3602 50.4471 29.4338 50.6346C29.5074 50.8222 29.5227 51.0276 29.4775 51.2239C29.4324 51.4203 29.3291 51.5984 29.181 51.735C29.176 51.739 29.106 51.794 29.101 51.8ZM31.5 52H31.316C31.4841 51.5502 31.5383 51.0657 31.4735 50.5898C31.4088 50.114 31.2272 49.6616 30.945 49.273L32.416 50.535C32.4774 50.6821 32.506 50.8407 32.5 51C32.5 51.2652 32.3946 51.5196 32.2071 51.7071C32.0196 51.8946 31.7652 52 31.5 52ZM44.5 46C44.5 46.2652 44.3946 46.5196 44.2071 46.7071C44.0196 46.8946 43.7652 47 43.5 47H43.27C43.0244 47.0019 42.7868 46.9129 42.603 46.75L42.403 46.567C42.3454 46.4478 42.2649 46.341 42.166 46.253L33.166 38.253C32.968 38.079 32.7093 37.9902 32.4461 38.006C32.183 38.0217 31.9367 38.1408 31.7609 38.3372C31.585 38.5336 31.4939 38.7914 31.5072 39.0547C31.5205 39.318 31.6372 39.5654 31.832 39.743L40.393 47.443C40.3408 47.5414 40.2733 47.6309 40.193 47.708C40.1029 47.8006 39.9952 47.8741 39.8761 47.9243C39.7571 47.9744 39.6292 48.0002 39.5 48H39.25C39.0068 47.996 38.7722 47.9093 38.585 47.754L37.954 47.208C37.8139 46.9975 37.6456 46.807 37.454 46.642L31.154 41.242C30.9531 41.0714 30.693 40.9871 30.4302 41.0073C30.1675 41.0275 29.9233 41.1506 29.7508 41.3498C29.5783 41.5491 29.4914 41.8083 29.5091 42.0713C29.5267 42.3342 29.6474 42.5796 29.845 42.754L36.4 48.507C36.4728 48.6608 36.5071 48.83 36.5 49C36.5 49.2652 36.3946 49.5196 36.2071 49.7071C36.0196 49.8946 35.7652 50 35.5 50H35.24C35.0001 50.0006 34.7681 49.9143 34.587 49.757L33.967 49.231C33.8142 49.006 33.63 48.8039 33.42 48.631L28.14 44.231C28.0397 44.1462 27.9236 44.0821 27.7985 44.0421C27.6734 44.0022 27.5416 43.9873 27.4107 43.9983C27.2798 44.0093 27.1524 44.046 27.0357 44.1063C26.919 44.1665 26.8153 44.2492 26.7305 44.3495C26.6457 44.4498 26.5816 44.5659 26.5416 44.691C26.5017 44.8161 26.4868 44.9479 26.4978 45.0788C26.5088 45.2097 26.5455 45.3371 26.6058 45.4538C26.666 45.5705 26.7487 45.6742 26.849 45.759L29.857 48.339C29.4381 48.1196 28.9729 48.0034 28.5 48H28.17C27.9419 48.0028 27.7148 48.0313 27.493 48.085C27.493 48.056 27.5 48.028 27.5 48C27.5 47.2044 27.1839 46.4413 26.6213 45.8787C26.0587 45.3161 25.2956 45 24.5 45H24.17C23.8935 45.0024 23.6187 45.0424 23.353 45.119C23.1653 44.5079 22.7872 43.9728 22.274 43.5916C21.7608 43.2104 21.1393 43.0031 20.5 43C20.5 42.2044 20.1839 41.4413 19.6213 40.8787C19.0587 40.3161 18.2956 40 17.5 40H17.17C16.5201 39.9952 15.887 40.2062 15.37 40.6L13.5 42H10.5V30H16.38C17.2712 30.0018 18.1504 29.7946 18.947 29.395C19.466 29.1341 20.0391 28.9988 20.62 29H23.45C25.1019 28.9989 26.7001 29.5863 27.958 30.657L26.7 31.6C26.1963 31.9778 25.8242 32.5045 25.6365 33.1055C25.4487 33.7065 25.4548 34.3513 25.6539 34.9487C25.8531 35.546 26.2351 36.0656 26.7459 36.4337C27.2567 36.8019 27.8704 37 28.5 37H29.03C29.4941 37.0008 29.952 36.8929 30.367 36.685L33.159 35.285L42.625 43.743L43.63 44.643L44.223 45.188L44.242 45.206L44.268 45.231C44.4154 45.4077 44.4973 45.6299 44.5 45.86V46ZM46.5 42C46.3133 41.999 46.1301 42.0502 45.971 42.148C45.812 42.2457 45.6834 42.386 45.6 42.553L45.2 43.364L45.125 43.297L34.176 33.263C34.0269 33.1263 33.8399 33.038 33.6395 33.0098C33.4392 32.9815 33.2351 33.0148 33.054 33.105L29.473 34.9C29.3351 34.9673 29.1834 35.0015 29.03 35H28.5C28.2348 35 27.9804 34.8946 27.7929 34.7071C27.6054 34.5196 27.5 34.2652 27.5 34C27.5011 33.845 27.5378 33.6922 27.6071 33.5536C27.6765 33.4149 27.7767 33.2939 27.9 33.2L33.3 29.148C34.2938 28.399 35.5055 27.9958 36.75 28H40.89C41.8354 27.9992 42.7663 28.2322 43.5999 28.6781C44.4335 29.124 45.144 29.7691 45.668 30.556C45.7595 30.6927 45.8832 30.8048 46.0284 30.8822C46.1735 30.9597 46.3355 31.0001 46.5 31H50.5V42H46.5ZM58.5 45H52.5V29H58.5V45Z" fill="#1D1E23"/>
<path id="Vector_2" d="M30.5 24C32.4778 24 34.4112 23.4135 36.0557 22.3147C37.7002 21.2159 38.9819 19.6541 39.7388 17.8268C40.4957 15.9996 40.6937 13.9889 40.3079 12.0491C39.922 10.1093 38.9696 8.32746 37.5711 6.92894C36.1725 5.53041 34.3907 4.578 32.4509 4.19215C30.5111 3.8063 28.5004 4.00433 26.6732 4.76121C24.8459 5.51809 23.2841 6.79981 22.1853 8.4443C21.0865 10.0888 20.5 12.0222 20.5 14C20.5029 16.6513 21.5574 19.1931 23.4321 21.0679C25.3069 22.9426 27.8487 23.9971 30.5 24ZM30.5 6C32.0823 6 33.629 6.4692 34.9446 7.34825C36.2602 8.2273 37.2855 9.47673 37.891 10.9385C38.4965 12.4003 38.655 14.0089 38.3463 15.5607C38.0376 17.1126 37.2757 18.538 36.1569 19.6569C35.038 20.7757 33.6126 21.5376 32.0607 21.8463C30.5089 22.155 28.9003 21.9965 27.4385 21.391C25.9767 20.7855 24.7273 19.7602 23.8482 18.4446C22.9692 17.129 22.5 15.5823 22.5 14C22.5024 11.879 23.346 9.84556 24.8458 8.34578C26.3456 6.84601 28.379 6.00239 30.5 6Z" fill="#1D1E23"/>
<path id="Vector_3" d="M29.5004 18C29.7656 17.9999 30.0199 17.8945 30.2074 17.707L36.2074 11.707L34.7934 10.293L29.4064 15.68L26.1004 13.2L24.9004 14.8L28.9004 17.8C29.0732 17.9302 29.2839 18.0005 29.5004 18Z" fill="#1D1E23"/>
</g>
</svg>
