<svg width="65" height="64" viewBox="0 0 65 64" fill="none" xmlns="http://www.w3.org/2000/svg">
<g clip-path="url(#clip0_441903_618)">
<path d="M42.0552 15.9087C41.4722 15.3262 40.6973 15.0049 39.873 15.0049C39.0488 15.0049 38.2739 15.3262 37.6914 15.9087C37.1084 16.4917 36.7871 17.2666 36.7871 18.0908C36.7871 18.915 37.1084 19.6899 37.6909 20.2725L42.9478 25.5293C43.5303 26.1118 44.3057 26.4331 45.1299 26.4331C45.9541 26.4331 46.7285 26.1118 47.3115 25.5293L58.543 14.2979C59.126 13.7148 59.4468 12.9399 59.4468 12.1162C59.4468 11.292 59.126 10.5171 58.543 9.93408C57.9604 9.35107 57.1851 9.03027 56.3608 9.03027C55.5366 9.03027 54.7617 9.35107 54.1792 9.93408L52.9409 11.1724C52.0234 10.4722 51.0166 9.91064 49.9497 9.50439V8.10059C49.9497 6.39893 48.5654 5.01465 46.8643 5.01465H37.1885V3.94336C37.1885 1.76904 35.4194 0 33.2451 0H22.4546C20.2803 0 18.5112 1.76904 18.5112 3.94336V8.39893C18.5112 9.60693 19.4941 10.5898 20.7021 10.5898H34.9976C36.2056 10.5898 37.1885 9.60693 37.1885 8.39893V6.89258H46.8638C47.5298 6.89258 48.0718 7.43457 48.0718 8.10059V8.96533C47.2988 8.80908 46.5078 8.72607 45.7075 8.72607C39.1309 8.72607 33.7803 14.0767 33.7803 20.6533C33.7803 27.23 39.1309 32.5806 45.7075 32.5806C46.5098 32.5806 47.3008 32.5 48.0718 32.3452V60.9146C48.0718 61.5806 47.5298 62.1221 46.8638 62.1221H8.83545C8.16943 62.1221 7.62793 61.5806 7.62793 60.9146V8.10059C7.62793 7.43457 8.16943 6.89258 8.83545 6.89258H15.0771C15.5957 6.89258 16.0161 6.47217 16.0161 5.95361C16.0161 5.43506 15.5957 5.01465 15.0771 5.01465H8.83545C7.13428 5.01465 5.75 6.39893 5.75 8.10059V60.9146C5.75 62.6157 7.13428 64 8.83545 64H46.8643C48.5654 64 49.9497 62.6157 49.9497 60.9146V31.8022C51.4448 31.2334 52.8237 30.3652 54.0034 29.2231C56.2339 27.0635 57.5215 24.168 57.6279 21.0698C57.6455 20.5518 57.2402 20.1172 56.7217 20.0991C56.207 20.082 55.769 20.4868 55.751 21.0054C55.6011 25.3662 52.7334 28.9668 48.7954 30.2231C48.7412 30.2358 48.6885 30.2524 48.6387 30.2744C47.7119 30.5532 46.728 30.7026 45.7075 30.7026C40.1665 30.7026 35.6582 26.1943 35.6582 20.6533C35.6582 15.1123 40.1665 10.604 45.7075 10.604C47.8359 10.604 49.8931 11.2769 51.5996 12.5137L45.1299 18.9839L42.0552 15.9087ZM35.3105 8.39893C35.3105 8.57178 35.1704 8.71191 34.9976 8.71191H20.7021C20.5293 8.71191 20.3892 8.57178 20.3892 8.39893V3.94336C20.3892 2.8042 21.3154 1.87793 22.4546 1.87793H33.2451C34.3838 1.87793 35.3105 2.8042 35.3105 3.94336V8.39893ZM55.5073 11.2622C55.7354 11.0337 56.0386 10.9082 56.3608 10.9082C56.6836 10.9082 56.9868 11.0342 57.2153 11.2622C57.686 11.7329 57.686 12.4995 57.2153 12.9702L45.9834 24.2017C45.7554 24.4297 45.4521 24.5557 45.1294 24.5557C44.8066 24.5557 44.5034 24.4297 44.2754 24.2017L39.0186 18.9448C38.7905 18.7168 38.665 18.4136 38.665 18.0908C38.665 17.7681 38.7905 17.4648 39.019 17.2368C39.2471 17.0088 39.5503 16.8828 39.873 16.8828C40.1953 16.8828 40.499 17.0088 40.7271 17.2368L44.4658 20.9756C44.8325 21.3423 45.4268 21.3423 45.7935 20.9756L55.5073 11.2622Z" fill="#1D1E23"/>
<path d="M31.3047 23.5684H19.8638C19.3452 23.5684 18.9253 23.9888 18.9253 24.5073C18.9253 25.0254 19.3452 25.4458 19.8638 25.4458H31.3047C31.8232 25.4458 32.2437 25.0254 32.2437 24.5073C32.2437 23.9888 31.8232 23.5684 31.3047 23.5684Z" fill="#1D1E23"/>
<path d="M18.0718 13.8765H11.7539C11.2354 13.8765 10.8149 14.2969 10.8149 14.8154C10.8149 15.334 11.2354 15.7544 11.7539 15.7544H18.0718C18.5903 15.7544 19.0107 15.334 19.0107 14.8154C19.0107 14.2969 18.5903 13.8765 18.0718 13.8765Z" fill="#1D1E23"/>
<path d="M19.8638 29.8018H31.3047C31.8232 29.8018 32.2437 29.3813 32.2437 28.8628C32.2437 28.3447 31.8232 27.9243 31.3047 27.9243H19.8638C19.3452 27.9243 18.9253 28.3447 18.9253 28.8628C18.9253 29.3813 19.3452 29.8018 19.8638 29.8018Z" fill="#1D1E23"/>
<path d="M35.2568 34.9561H19.8638C19.3452 34.9561 18.9253 35.3765 18.9253 35.895C18.9253 36.4136 19.3452 36.834 19.8638 36.834H35.2568C35.7754 36.834 36.1958 36.4136 36.1958 35.895C36.1958 35.3765 35.7754 34.9561 35.2568 34.9561Z" fill="#1D1E23"/>
<path d="M19.8638 41.1899H27.5605C28.0791 41.1899 28.499 40.7695 28.499 40.251C28.499 39.7324 28.0791 39.312 27.5605 39.312H19.8638C19.3452 39.312 18.9253 39.7324 18.9253 40.251C18.9253 40.7695 19.3452 41.1899 19.8638 41.1899Z" fill="#1D1E23"/>
<path d="M19.8638 48.2339H31.3047C31.8232 48.2339 32.2437 47.8135 32.2437 47.2949C32.2437 46.7764 31.8232 46.356 31.3047 46.356H19.8638C19.3452 46.356 18.9253 46.7764 18.9253 47.2949C18.9253 47.8135 19.3452 48.2339 19.8638 48.2339Z" fill="#1D1E23"/>
<path d="M19.8638 52.5894H35.2568C35.7754 52.5894 36.1958 52.1689 36.1958 51.6504C36.1958 51.1323 35.7754 50.7119 35.2568 50.7119H19.8638C19.3452 50.7119 18.9253 51.1323 18.9253 51.6504C18.9253 52.1689 19.3452 52.5894 19.8638 52.5894Z" fill="#1D1E23"/>
<path d="M13.7466 22.7544C11.6553 22.7544 9.9541 24.4556 9.9541 26.5469C9.9541 28.6382 11.6553 30.3394 13.7466 30.3394C15.8379 30.3394 17.5391 28.6382 17.5391 26.5469C17.5391 24.4556 15.8379 22.7544 13.7466 22.7544ZM13.7466 28.4614C12.6909 28.4614 11.832 27.6025 11.832 26.5469C11.832 25.4912 12.6909 24.6323 13.7466 24.6323C14.8022 24.6323 15.6611 25.4912 15.6611 26.5469C15.6611 27.6025 14.8022 28.4614 13.7466 28.4614Z" fill="#1D1E23"/>
<path d="M13.7466 34.2803C11.6553 34.2803 9.9541 35.9819 9.9541 38.0728C9.9541 40.1641 11.6553 41.8652 13.7466 41.8652C15.8379 41.8652 17.5391 40.1641 17.5391 38.0728C17.5391 35.9819 15.8379 34.2803 13.7466 34.2803ZM13.7466 39.9878C12.6909 39.9878 11.832 39.1289 11.832 38.0732C11.832 37.0171 12.6909 36.1582 13.7466 36.1582C14.8022 36.1582 15.6611 37.0171 15.6611 38.0732C15.6611 39.1289 14.8022 39.9878 13.7466 39.9878Z" fill="#1D1E23"/>
<path d="M13.7466 45.6802C11.6553 45.6802 9.9541 47.3813 9.9541 49.4727C9.9541 51.564 11.6553 53.2651 13.7466 53.2651C15.8379 53.2651 17.5391 51.564 17.5391 49.4727C17.5391 47.3813 15.8379 45.6802 13.7466 45.6802ZM13.7466 51.3872C12.6909 51.3872 11.832 50.5283 11.832 49.4727C11.832 48.417 12.6909 47.5581 13.7466 47.5581C14.8022 47.5581 15.6611 48.417 15.6611 49.4727C15.6611 50.5283 14.8022 51.3872 13.7466 51.3872Z" fill="#1D1E23"/>
</g>
<defs>
<clipPath id="clip0_441903_618">
<rect width="64" height="64" fill="white" transform="translate(0.5)"/>
</clipPath>
</defs>
</svg>
