<svg width="25" height="24" viewBox="0 0 25 24" fill="none" xmlns="http://www.w3.org/2000/svg">
<g id="ArrowCircleLeft">
<path id="Vector (Stroke)" fill-rule="evenodd" clip-rule="evenodd" d="M12.5 4.125C8.15076 4.125 4.625 7.65076 4.625 12C4.625 16.3492 8.15076 19.875 12.5 19.875C16.8492 19.875 20.375 16.3492 20.375 12C20.375 7.65076 16.8492 4.125 12.5 4.125ZM2.375 12C2.375 6.40812 6.90812 1.875 12.5 1.875C18.0919 1.875 22.625 6.40812 22.625 12C22.625 17.5919 18.0919 22.125 12.5 22.125C6.90812 22.125 2.375 17.5919 2.375 12Z" fill="#101828"/>
<path id="Vector (Stroke)_2" fill-rule="evenodd" clip-rule="evenodd" d="M12.7236 8.0264C13.163 8.46574 13.163 9.17805 12.7236 9.61739L10.341 12L12.7236 14.3827C13.163 14.822 13.163 15.5343 12.7236 15.9736C12.2843 16.413 11.572 16.413 11.1326 15.9736L7.95451 12.7955C7.74353 12.5845 7.625 12.2984 7.625 12C7.625 11.7017 7.74353 11.4155 7.9545 11.2045L11.1326 8.0264C11.572 7.58706 12.2843 7.58706 12.7236 8.0264Z" fill="#101828"/>
<path id="Vector (Stroke)_3" fill-rule="evenodd" clip-rule="evenodd" d="M7.625 12C7.625 11.3787 8.12868 10.875 8.75 10.875H16.25C16.8713 10.875 17.375 11.3787 17.375 12C17.375 12.6213 16.8713 13.125 16.25 13.125H8.75C8.12868 13.125 7.625 12.6213 7.625 12Z" fill="#101828"/>
</g>
</svg>
