<svg width="25" height="24" viewBox="0 0 25 24" fill="none" xmlns="http://www.w3.org/2000/svg">
<g id="ArrowCircleRight">
<path id="Vector (Stroke)" fill-rule="evenodd" clip-rule="evenodd" d="M12.8555 4.125C8.50623 4.125 4.98047 7.65076 4.98047 12C4.98047 16.3492 8.50623 19.875 12.8555 19.875C17.2047 19.875 20.7305 16.3492 20.7305 12C20.7305 7.65076 17.2047 4.125 12.8555 4.125ZM2.73047 12C2.73047 6.40812 7.26359 1.875 12.8555 1.875C18.4474 1.875 22.9805 6.40812 22.9805 12C22.9805 17.5919 18.4474 22.125 12.8555 22.125C7.26359 22.125 2.73047 17.5919 2.73047 12Z" fill="#101828"/>
<path id="Vector (Stroke)_2" fill-rule="evenodd" clip-rule="evenodd" d="M12.6303 8.0264C13.0696 7.58706 13.7819 7.58706 14.2213 8.0264L17.3994 11.2045C17.8387 11.6439 17.8387 12.3562 17.3994 12.7955L14.2213 15.9736C13.7819 16.413 13.0696 16.413 12.6303 15.9736C12.1909 15.5343 12.1909 14.822 12.6303 14.3827L15.0129 12L12.6303 9.61739C12.1909 9.17805 12.1909 8.46574 12.6303 8.0264Z" fill="#101828"/>
<path id="Vector (Stroke)_3" fill-rule="evenodd" clip-rule="evenodd" d="M7.98047 12C7.98047 11.3787 8.48415 10.875 9.10547 10.875H16.6055C17.2268 10.875 17.7305 11.3787 17.7305 12C17.7305 12.6213 17.2268 13.125 16.6055 13.125H9.10547C8.48415 13.125 7.98047 12.6213 7.98047 12Z" fill="#101828"/>
</g>
</svg>
