<svg width="17" height="16" viewBox="0 0 17 16" fill="none" xmlns="http://www.w3.org/2000/svg">
<g id="item">
<g id="current">
<path id="Oval" fill-rule="evenodd" clip-rule="evenodd" d="M8.75 16C13.1683 16 16.75 12.4183 16.75 8C16.75 3.58172 13.1683 0 8.75 0C4.33172 0 0.75 3.58172 0.75 8C0.75 12.4183 4.33172 16 8.75 16Z" fill="#ED772C"/>
</g>
<path id="Combined Shape" fill-rule="evenodd" clip-rule="evenodd" d="M13.6998 6.29289C14.0904 5.90236 14.0904 5.2692 13.6998 4.87867C13.3093 4.48815 12.6762 4.48815 12.2856 4.87867L7.33588 9.82842L5.21456 7.7071C4.82403 7.31658 4.19087 7.31658 3.80035 7.7071C3.40982 8.09763 3.40982 8.73079 3.80035 9.12131L6.62877 11.9497C7.0193 12.3403 7.65246 12.3403 8.04299 11.9497L13.6998 6.29289Z" fill="white"/>
</g>
</svg>
