<svg width="65" height="64" viewBox="0 0 65 64" fill="none" xmlns="http://www.w3.org/2000/svg">
<g clip-path="url(#clip0_22910_294684)">
<path d="M39.25 23.75C38.56 23.75 38 24.31 38 25C38 25.69 38.56 26.25 39.25 26.25C39.94 26.25 40.5 25.69 40.5 25C40.5 24.31 39.94 23.75 39.25 23.75Z" fill="#1D1E23"/>
<path d="M63.0351 55.4649L46.3501 38.7799C49.0682 34.6856 50.5 29.9444 50.5 25C50.5 11.215 39.285 0 25.5 0C11.715 0 0.5 11.215 0.5 25C0.5 38.785 11.715 50 25.5 50C30.4445 50 35.1858 48.5681 39.2799 45.8503L43.8918 50.4621C43.8924 50.4627 43.893 50.4634 43.8937 50.4641L55.9647 62.5351C56.9095 63.4798 58.1649 64 59.5 64C60.8351 64 62.0905 63.4797 63.0348 62.5355C63.9796 61.5914 64.5 60.3359 64.5 59C64.5 57.6641 63.9796 56.4086 63.0351 55.4649ZM38.692 43.2159L38.6917 43.2161C34.8334 46.0186 30.2719 47.5 25.5 47.5C13.0935 47.5 3 37.4065 3 25C3 12.5935 13.0935 2.5 25.5 2.5C37.9065 2.5 48 12.5935 48 25C48 29.7719 46.5186 34.3334 43.716 38.1919C42.3139 40.1235 40.6236 41.8139 38.692 43.2159ZM41.3145 44.3491C42.6082 43.2907 43.7909 42.1081 44.8491 40.8145L48.3955 44.3609C47.317 45.6338 46.1338 46.8171 44.8609 47.8955L41.3145 44.3491ZM61.2674 60.7674C60.7949 61.2399 60.1673 61.5 59.5 61.5C58.8327 61.5 58.2051 61.2399 57.7326 60.7674L46.6333 49.668C47.8991 48.5816 49.0816 47.3993 50.1679 46.1334L61.2676 57.2331C61.7399 57.7049 62 58.3322 62 59C62 59.6678 61.7399 60.2951 61.2674 60.7674Z" fill="#1D1E23"/>
<path d="M25.5 5C14.4719 5 5.5 13.9719 5.5 25C5.5 36.0281 14.4719 45 25.5 45C36.5281 45 45.5 36.0281 45.5 25C45.5 13.9719 36.5281 5 25.5 5ZM25.5 42.5C15.8505 42.5 8 34.6495 8 25C8 15.3505 15.8505 7.5 25.5 7.5C35.1495 7.5 43 15.3505 43 25C43 34.6495 35.1495 42.5 25.5 42.5Z" fill="#1D1E23"/>
<path d="M39.5081 19.6341C38.4318 16.8326 36.5576 14.4374 34.0881 12.7075C31.5599 10.9363 28.5901 10 25.5 10C24.8098 10 24.25 10.5598 24.25 11.25C24.25 11.9402 24.8098 12.5 25.5 12.5C30.6374 12.5 35.3289 15.7272 37.1745 20.5309C37.3655 21.0279 37.8391 21.3329 38.3416 21.3329C38.4906 21.3329 38.6422 21.306 38.7896 21.2494C39.434 21.0017 39.7558 20.2786 39.5081 19.6341Z" fill="#1D1E23"/>
</g>
<defs>
<clipPath id="clip0_22910_294684">
<rect width="64" height="64" fill="white" transform="translate(0.5)"/>
</clipPath>
</defs>
</svg>
