<svg width="136" height="40" viewBox="0 0 136 40" fill="none" xmlns="http://www.w3.org/2000/svg">
<g id="Group">
<path id="BG" d="M130.963 40H5.03704C2.26793 40 0 37.7488 0 35V5C0 2.25125 2.26793 2.38419e-06 5.03704 2.38419e-06H130.963C133.732 2.38419e-06 136 2.25125 136 5V35C136 37.7488 133.732 40 130.963 40Z" fill="#010208"/>
<path id="Border" d="M130.963 0.801251C133.295 0.801251 135.193 2.685 135.193 5V35C135.193 37.315 133.295 39.1988 130.963 39.1988H5.03704C2.70489 39.1988 0.807185 37.315 0.807185 35V5C0.807185 2.685 2.70489 0.801251 5.03704 0.801251H130.963ZM130.963 2.38419e-06H5.03704C2.26793 2.38419e-06 0 2.25125 0 5V35C0 37.7488 2.26793 40 5.03704 40H130.963C133.732 40 136 37.7488 136 35V5C136 2.25125 133.732 2.38419e-06 130.963 2.38419e-06Z" fill="#A6A6A6"/>
<g id="Icon">
<path id="Vector" d="M10.5141 7.53869C10.2181 7.84619 10.0469 8.32494 10.0469 8.94494V31.0599C10.0469 31.6799 10.2181 32.1587 10.5141 32.4662L10.5871 32.5337L23.0714 20.1462V19.8537L10.5871 7.46619L10.5141 7.53869Z" fill="url(#paint0_linear_26347_88004)"/>
<path id="Vector_2" d="M27.2271 24.2773L23.0703 20.1461V19.8536L27.2322 15.7223L27.3253 15.7761L32.2541 18.5598C33.6607 19.3498 33.6607 20.6498 32.2541 21.4448L27.3253 24.2236L27.2271 24.2773Z" fill="url(#paint1_linear_26347_88004)"/>
<path id="Vector_3" d="M27.328 24.2237L23.073 20L10.5156 32.4662C10.9828 32.9537 11.7447 33.0125 12.611 32.525L27.328 24.2237Z" fill="url(#paint2_linear_26347_88004)"/>
<path id="Vector_4" d="M27.328 15.7763L12.611 7.475C11.7447 6.9925 10.9828 7.05125 10.5156 7.53875L23.073 20L27.328 15.7763Z" fill="url(#paint3_linear_26347_88004)"/>
</g>
<g id="GET IT ON">
<path id="G" d="M47.7701 10.2437C47.7701 11.0787 47.5182 11.7475 47.0221 12.2462C46.4516 12.8375 45.7087 13.135 44.7982 13.135C43.9281 13.135 43.1851 12.8325 42.5756 12.2362C41.9649 11.6312 41.6602 10.8887 41.6602 9.99999C41.6602 9.11124 41.9649 8.36874 42.5756 7.76874C43.1851 7.16749 43.9281 6.86499 44.7982 6.86499C45.2314 6.86499 45.6445 6.95374 46.0386 7.11874C46.4315 7.28499 46.7513 7.50999 46.983 7.78749L46.4567 8.31499C46.0525 7.84124 45.5022 7.60749 44.7982 7.60749C44.1636 7.60749 43.6133 7.82749 43.1461 8.27124C42.6839 8.71624 42.4522 9.29249 42.4522 9.99999C42.4522 10.7075 42.6839 11.2887 43.1461 11.7337C43.6133 12.1725 44.1636 12.3975 44.7982 12.3975C45.4719 12.3975 46.0386 12.1725 46.4856 11.7287C46.7803 11.435 46.9478 11.03 46.9919 10.5125H44.7982V9.78999H47.7247C47.76 9.94624 47.7701 10.0975 47.7701 10.2437Z" fill="white" stroke="white" stroke-width="0.16" stroke-miterlimit="10"/>
<path id="E" d="M52.4139 7.73869H49.6649V9.63869H52.1432V10.3612H49.6649V12.2612H52.4139V12.9974H48.8867V7.00244H52.4139V7.73869Z" fill="white" stroke="white" stroke-width="0.16" stroke-miterlimit="10"/>
<path id="T" d="M55.6909 12.9974H54.9127V7.73869H53.2266V7.00244H57.3783V7.73869H55.6909V12.9974Z" fill="white" stroke="white" stroke-width="0.16" stroke-miterlimit="10"/>
<path id="I" d="M60.3828 12.9974V7.00244H61.1598V12.9974H60.3828Z" fill="white" stroke="white" stroke-width="0.16" stroke-miterlimit="10"/>
<path id="T_2" d="M64.6011 12.9974H63.8292V7.73869H62.1367V7.00244H66.2935V7.73869H64.6011V12.9974Z" fill="white" stroke="white" stroke-width="0.16" stroke-miterlimit="10"/>
<path id="O" d="M74.1549 12.2262C73.5593 12.8325 72.8214 13.135 71.9411 13.135C71.0559 13.135 70.318 12.8325 69.7223 12.2262C69.128 11.6212 68.832 10.8787 68.832 9.99999C68.832 9.12124 69.128 8.37874 69.7223 7.77374C70.318 7.16749 71.0559 6.86499 71.9411 6.86499C72.8163 6.86499 73.5543 7.16749 74.1499 7.77874C74.7493 8.38874 75.0452 9.12624 75.0452 9.99999C75.0452 10.8787 74.7493 11.6212 74.1549 12.2262ZM70.2978 11.7237C70.7461 12.1725 71.2914 12.3975 71.9411 12.3975C72.5859 12.3975 73.1362 12.1725 73.5794 11.7237C74.0265 11.275 74.2531 10.6987 74.2531 9.99999C74.2531 9.30124 74.0265 8.72499 73.5794 8.27624C73.1362 7.82749 72.5859 7.60249 71.9411 7.60249C71.2914 7.60249 70.7461 7.82749 70.2978 8.27624C69.8508 8.72499 69.6241 9.30124 69.6241 9.99999C69.6241 10.6987 69.8508 11.275 70.2978 11.7237Z" fill="white" stroke="white" stroke-width="0.16" stroke-miterlimit="10"/>
<path id="N" d="M76.1367 12.9974V7.00244H77.0812L80.0178 11.6649H80.0518L80.0178 10.5124V7.00244H80.7947V12.9974H79.9838L76.9086 8.10494H76.8746L76.9086 9.26244V12.9974H76.1367Z" fill="white" stroke="white" stroke-width="0.16" stroke-miterlimit="10"/>
</g>
<g id="Google Play">
<path id="Google Play_2" d="M68.6394 21.7524C66.2733 21.7524 64.3403 23.5399 64.3403 26.0061C64.3403 28.4524 66.2733 30.2586 68.6394 30.2586C71.0106 30.2586 72.9436 28.4524 72.9436 26.0061C72.9436 23.5399 71.0106 21.7524 68.6394 21.7524ZM68.6394 28.5836C67.3411 28.5836 66.2242 27.5199 66.2242 26.0061C66.2242 24.4724 67.3411 23.4274 68.6394 23.4274C69.9377 23.4274 71.0597 24.4724 71.0597 26.0061C71.0597 27.5199 69.9377 28.5836 68.6394 28.5836ZM59.2592 21.7524C56.888 21.7524 54.9601 23.5399 54.9601 26.0061C54.9601 28.4524 56.888 30.2586 59.2592 30.2586C61.6291 30.2586 63.5583 28.4524 63.5583 26.0061C63.5583 23.5399 61.6291 21.7524 59.2592 21.7524ZM59.2592 28.5836C57.9597 28.5836 56.8389 27.5199 56.8389 26.0061C56.8389 24.4724 57.9597 23.4274 59.2592 23.4274C60.5575 23.4274 61.6745 24.4724 61.6745 26.0061C61.6745 27.5199 60.5575 28.5836 59.2592 28.5836ZM48.0972 23.0561V24.8636H52.4454C52.3182 25.8736 51.9782 26.6161 51.4569 27.1336C50.8222 27.7586 49.8337 28.4524 48.0972 28.4524C45.4212 28.4524 43.3258 26.3086 43.3258 23.6524C43.3258 20.9961 45.4212 18.8524 48.0972 18.8524C49.544 18.8524 50.5968 19.4136 51.3737 20.1411L52.6569 18.8674C51.5702 17.8374 50.1246 17.0461 48.0972 17.0461C44.4277 17.0461 41.3438 20.0099 41.3438 23.6524C41.3438 27.2949 44.4277 30.2586 48.0972 30.2586C50.0805 30.2586 51.5702 29.6136 52.7413 28.4036C53.9414 27.2124 54.3154 25.5374 54.3154 24.1849C54.3154 23.7649 54.2801 23.3786 54.2172 23.0561H48.0972ZM93.7402 24.4574C93.3864 23.5061 92.2946 21.7524 90.0708 21.7524C87.8671 21.7524 86.0323 23.4761 86.0323 26.0061C86.0323 28.3886 87.8482 30.2586 90.2823 30.2586C92.2505 30.2586 93.3864 29.0674 93.8536 28.3736L92.3928 27.4074C91.9055 28.1149 91.2419 28.5836 90.2823 28.5836C89.3291 28.5836 88.6453 28.1499 88.2071 27.2949L93.9379 24.9411L93.7402 24.4574ZM87.8973 25.8736C87.8482 24.2336 89.1805 23.3936 90.135 23.3936C90.883 23.3936 91.5177 23.7649 91.7292 24.2961L87.8973 25.8736ZM83.2393 29.9999H85.1231V17.4999H83.2393V29.9999ZM80.1541 22.6999H80.0911C79.668 22.2024 78.8608 21.7524 77.8383 21.7524C75.6926 21.7524 73.7306 23.6224 73.7306 26.0199C73.7306 28.4036 75.6926 30.2586 77.8383 30.2586C78.8608 30.2586 79.668 29.8049 80.0911 29.2924H80.1541V29.9024C80.1541 31.5286 79.2789 32.4024 77.8673 32.4024C76.7163 32.4024 76.0023 31.5774 75.7077 30.8836L74.0694 31.5624C74.5416 32.6899 75.792 34.0774 77.8673 34.0774C80.076 34.0774 81.9397 32.7874 81.9397 29.6486V22.0111H80.1541V22.6999ZM77.9995 28.5836C76.7012 28.5836 75.6145 27.5049 75.6145 26.0199C75.6145 24.5211 76.7012 23.4274 77.9995 23.4274C79.2789 23.4274 80.2876 24.5211 80.2876 26.0199C80.2876 27.5049 79.2789 28.5836 77.9995 28.5836ZM102.56 17.4999H98.0545V29.9999H99.9333V25.2636H102.56C104.647 25.2636 106.693 23.7649 106.693 21.3811C106.693 18.9986 104.642 17.4999 102.56 17.4999ZM102.609 23.5249H99.9333V19.2386H102.609C104.012 19.2386 104.813 20.3949 104.813 21.3811C104.813 22.3486 104.012 23.5249 102.609 23.5249ZM114.223 21.7286C112.866 21.7286 111.454 22.3236 110.874 23.6424L112.541 24.3361C112.9 23.6424 113.56 23.4174 114.257 23.4174C115.232 23.4174 116.221 23.9986 116.236 25.0249V25.1561C115.896 24.9611 115.168 24.6724 114.272 24.6724C112.477 24.6724 110.647 25.6536 110.647 27.4849C110.647 29.1599 112.118 30.2386 113.771 30.2386C115.036 30.2386 115.733 29.6724 116.171 29.0136H116.236V29.9799H118.05V25.1849C118.05 22.9686 116.383 21.7286 114.223 21.7286ZM113.997 28.5786C113.382 28.5786 112.526 28.2761 112.526 27.5199C112.526 26.5524 113.594 26.1811 114.518 26.1811C115.345 26.1811 115.733 26.3624 116.236 26.6011C116.088 27.7586 115.085 28.5786 113.997 28.5786ZM124.661 22.0024L122.502 27.4211H122.437L120.205 22.0024H118.179L121.533 29.5749L119.619 33.7886H121.582L126.752 22.0024H124.661ZM107.726 29.9999H109.609V17.4999H107.726V29.9999Z" fill="white"/>
</g>
</g>
<defs>
<linearGradient id="paint0_linear_26347_88004" x1="21.9629" y1="31.2902" x2="5.18099" y2="14.384" gradientUnits="userSpaceOnUse">
<stop stop-color="#00A0FF"/>
<stop offset="0.0066" stop-color="#00A1FF"/>
<stop offset="0.2601" stop-color="#00BEFF"/>
<stop offset="0.5122" stop-color="#00D2FF"/>
<stop offset="0.7604" stop-color="#00DFFF"/>
<stop offset="1" stop-color="#00E3FF"/>
</linearGradient>
<linearGradient id="paint1_linear_26347_88004" x1="34.0857" y1="19.9984" x2="9.70957" y2="19.9984" gradientUnits="userSpaceOnUse">
<stop stop-color="#FFE000"/>
<stop offset="0.4087" stop-color="#FFBD00"/>
<stop offset="0.7754" stop-color="#FFA500"/>
<stop offset="1" stop-color="#FF9C00"/>
</linearGradient>
<linearGradient id="paint2_linear_26347_88004" x1="25.0142" y1="17.7039" x2="2.25655" y2="-5.22238" gradientUnits="userSpaceOnUse">
<stop stop-color="#FF3A44"/>
<stop offset="1" stop-color="#C31162"/>
</linearGradient>
<linearGradient id="paint3_linear_26347_88004" x1="7.35468" y1="39.8238" x2="17.517" y2="29.5863" gradientUnits="userSpaceOnUse">
<stop stop-color="#32A071"/>
<stop offset="0.0685" stop-color="#2DA771"/>
<stop offset="0.4762" stop-color="#15CF74"/>
<stop offset="0.8009" stop-color="#06E775"/>
<stop offset="1" stop-color="#00F076"/>
</linearGradient>
</defs>
</svg>
