<svg width="136" height="40" viewBox="0 0 136 40" fill="none" xmlns="http://www.w3.org/2000/svg">
<g id="Group">
<path id="BG" d="M135.243 35.3869C135.243 37.5185 133.511 39.2452 131.37 39.2452H4.63174C2.49131 39.2452 0.753906 37.5185 0.753906 35.3869V4.618C0.753906 2.48736 2.49131 0.754639 4.63174 0.754639H131.369C133.511 0.754639 135.242 2.48736 135.242 4.618L135.243 35.3869Z" fill="#010208"/>
<path id="Border" d="M130.963 0.80125C133.295 0.80125 135.193 2.68501 135.193 5V35C135.193 37.315 133.295 39.1988 130.963 39.1988H5.03704C2.70489 39.1988 0.807185 37.315 0.807185 35V5C0.807185 2.68501 2.70489 0.80125 5.03704 0.80125H130.963ZM130.963 3.8147e-06H5.03704C2.26793 3.8147e-06 0 2.25126 0 5V35C0 37.7487 2.26793 40 5.03704 40H130.963C133.732 40 136 37.7487 136 35V5C136 2.25126 133.732 3.8147e-06 130.963 3.8147e-06Z" fill="#A6A6A6"/>
<g id="Icon">
<g id="Vector">
<path d="M30.3512 19.784C30.322 16.561 33.0098 14.993 33.1327 14.92C31.6105 12.717 29.2511 12.416 28.422 12.392C26.4405 12.185 24.5183 13.569 23.5089 13.569C22.4793 13.569 20.9249 12.412 19.2496 12.446C17.0937 12.479 15.0769 13.718 13.9708 15.642C11.688 19.565 13.3905 25.33 15.5776 28.501C16.6716 30.054 17.95 31.788 19.6233 31.727C21.2604 31.66 21.8719 30.691 23.8474 30.691C25.8048 30.691 26.379 31.727 28.0856 31.688C29.8425 31.66 30.9486 30.128 32.0044 28.561C33.2687 26.781 33.7764 25.028 33.7966 24.938C33.7553 24.924 30.3845 23.647 30.3512 19.784Z" fill="white"/>
<path d="M27.1275 10.306C28.008 9.21304 28.6104 7.72604 28.4432 6.21704C27.1688 6.27304 25.5751 7.09204 24.6574 8.16104C23.8454 9.10304 23.1201 10.647 23.3074 12.099C24.739 12.205 26.2088 11.382 27.1275 10.306Z" fill="white"/>
</g>
</g>
<g id="Download on the">
<path id="D" d="M49.4138 10.0089C49.4138 11.1859 49.0582 12.0719 48.348 12.6669C47.6901 13.2159 46.7553 13.4909 45.5444 13.4909C44.9439 13.4909 44.4302 13.4649 44 13.4129V6.98195C44.5611 6.89195 45.1656 6.84595 45.8184 6.84595C46.9719 6.84595 47.8412 7.09495 48.4276 7.59295C49.0844 8.15595 49.4138 8.96095 49.4138 10.0089ZM48.3006 10.0379C48.3006 9.27495 48.0971 8.68995 47.6901 8.28195C47.2831 7.87495 46.6888 7.67095 45.906 7.67095C45.5736 7.67095 45.2905 7.69295 45.0558 7.73895V12.6279C45.1857 12.6479 45.4235 12.6569 45.769 12.6569C46.577 12.6569 47.2005 12.4339 47.6398 11.9879C48.079 11.5419 48.3006 10.8919 48.3006 10.0379Z" fill="white"/>
<path id="o" d="M55.3153 11.0368C55.3153 11.7618 55.1067 12.3558 54.6897 12.8218C54.2525 13.3008 53.6732 13.5398 52.9499 13.5398C52.2527 13.5398 51.6977 13.3108 51.2836 12.8508C50.8706 12.3918 50.6641 11.8128 50.6641 11.1148C50.6641 10.3848 50.8766 9.7858 51.3038 9.3208C51.7309 8.8558 52.3051 8.6228 53.0285 8.6228C53.7256 8.6228 54.2857 8.8518 54.7098 9.3108C55.1128 9.7568 55.3153 10.3328 55.3153 11.0368ZM54.2202 11.0708C54.2202 10.6358 54.1255 10.2628 53.9371 9.9518C53.7155 9.5758 53.4002 9.3878 52.9902 9.3878C52.5661 9.3878 52.2437 9.5758 52.022 9.9518C51.8327 10.2628 51.739 10.6418 51.739 11.0898C51.739 11.5248 51.8337 11.8978 52.022 12.2088C52.2507 12.5848 52.5691 12.7728 52.9801 12.7728C53.3831 12.7728 53.6994 12.5818 53.9271 12.1988C54.1225 11.8818 54.2202 11.5058 54.2202 11.0708Z" fill="white"/>
<path id="w" d="M63.2322 8.71899L61.7462 13.433H60.7791L60.1636 11.386C60.0074 10.875 59.8805 10.367 59.7818 9.86299H59.7626C59.671 10.381 59.544 10.888 59.3808 11.386L58.727 13.433H57.7488L56.3516 8.71899H57.4365L57.9735 10.96C58.1034 11.49 58.2102 11.995 58.2959 12.473H58.315C58.3936 12.079 58.5235 11.577 58.7069 10.97L59.3808 8.71999H60.2412L60.8869 10.922C61.0431 11.459 61.17 11.976 61.2677 12.474H61.2969C61.3685 11.989 61.4762 11.472 61.6193 10.922L62.1955 8.71999H63.2322V8.71899Z" fill="white"/>
<path id="n" d="M68.7056 13.4329H67.6498V10.7329C67.6498 9.90087 67.3315 9.48487 66.6928 9.48487C66.3795 9.48487 66.1266 9.59887 65.9302 9.82787C65.7357 10.0569 65.637 10.3269 65.637 10.6359V13.4319H64.5812V10.0659C64.5812 9.65187 64.5682 9.20287 64.543 8.71687H65.4708L65.5202 9.45387H65.5494C65.6723 9.22487 65.8556 9.03587 66.0964 8.88487C66.3825 8.70887 66.7028 8.61987 67.0534 8.61987C67.4967 8.61987 67.8654 8.76187 68.1585 9.04687C68.5232 9.39587 68.7056 9.91687 68.7056 10.6089V13.4329Z" fill="white"/>
<path id="l" d="M71.6133 13.4329H70.5586V6.55591H71.6133V13.4329Z" fill="white"/>
<path id="o_2" d="M77.8309 11.0368C77.8309 11.7618 77.6224 12.3558 77.2053 12.8218C76.7681 13.3008 76.1878 13.5398 75.4655 13.5398C74.7674 13.5398 74.2123 13.3108 73.7992 12.8508C73.3862 12.3918 73.1797 11.8128 73.1797 11.1148C73.1797 10.3848 73.3923 9.7858 73.8194 9.3208C74.2465 8.8558 74.8208 8.6228 75.5431 8.6228C76.2412 8.6228 76.8003 8.8518 77.2254 9.3108C77.6284 9.7568 77.8309 10.3328 77.8309 11.0368ZM76.7348 11.0708C76.7348 10.6358 76.6401 10.2628 76.4517 9.9518C76.2311 9.5758 75.9148 9.3878 75.5058 9.3878C75.0807 9.3878 74.7583 9.5758 74.5377 9.9518C74.3483 10.2628 74.2546 10.6418 74.2546 11.0898C74.2546 11.5248 74.3493 11.8978 74.5377 12.2088C74.7664 12.5848 75.0847 12.7728 75.4957 12.7728C75.8987 12.7728 76.214 12.5818 76.4417 12.1988C76.6381 11.8818 76.7348 11.5058 76.7348 11.0708Z" fill="white"/>
<path id="a" d="M82.9416 13.4328H81.9937L81.9151 12.8898H81.8859C81.5615 13.3228 81.0991 13.5398 80.4987 13.5398C80.0504 13.5398 79.6877 13.3968 79.4147 13.1128C79.1669 12.8548 79.043 12.5338 79.043 12.1528C79.043 11.5768 79.2847 11.1378 79.7713 10.8338C80.2569 10.5298 80.9399 10.3808 81.8194 10.3878V10.2998C81.8194 9.6788 81.491 9.3688 80.8331 9.3688C80.3647 9.3688 79.9517 9.4858 79.595 9.7178L79.3804 9.0298C79.8217 8.7588 80.3667 8.6228 81.0094 8.6228C82.2505 8.6228 82.8731 9.2728 82.8731 10.5728V12.3088C82.8731 12.7798 82.8963 13.1548 82.9416 13.4328ZM81.8456 11.8128V11.0858C80.681 11.0658 80.0987 11.3828 80.0987 12.0358C80.0987 12.2818 80.1652 12.4658 80.3012 12.5888C80.4372 12.7118 80.6105 12.7728 80.817 12.7728C81.0487 12.7728 81.2653 12.6998 81.4628 12.5548C81.6612 12.4088 81.7831 12.2238 81.8284 11.9968C81.8395 11.9458 81.8456 11.8838 81.8456 11.8128Z" fill="white"/>
<path id="d" d="M88.9396 13.4329H88.0027L87.9533 12.6759H87.9241C87.6249 13.2519 87.1152 13.5399 86.3989 13.5399C85.8267 13.5399 85.3502 13.3169 84.9724 12.8709C84.5946 12.4249 84.4062 11.8459 84.4062 11.1349C84.4062 10.3719 84.6108 9.75391 85.0218 9.28191C85.4197 8.84191 85.9073 8.62191 86.4875 8.62191C87.1252 8.62191 87.5715 8.83491 87.8254 9.26191H87.8455V6.55591H88.9023V12.1629C88.9023 12.6219 88.9144 13.0449 88.9396 13.4329ZM87.8455 11.4449V10.6589C87.8455 10.5229 87.8355 10.4129 87.8163 10.3289C87.7569 10.0769 87.6289 9.86491 87.4345 9.69391C87.2381 9.52291 87.0013 9.43691 86.7283 9.43691C86.3344 9.43691 86.0262 9.59191 85.7995 9.90291C85.5748 10.2139 85.461 10.6109 85.461 11.0959C85.461 11.5619 85.5688 11.9399 85.7854 12.2309C86.0141 12.5409 86.3223 12.6959 86.7082 12.6959C87.0547 12.6959 87.3318 12.5669 87.5423 12.3079C87.7458 12.0689 87.8455 11.7809 87.8455 11.4449Z" fill="white"/>
<path id="o_3" d="M97.9676 11.0368C97.9676 11.7618 97.7591 12.3558 97.342 12.8218C96.9048 13.3008 96.3265 13.5398 95.6022 13.5398C94.9061 13.5398 94.351 13.3108 93.936 12.8508C93.5229 12.3918 93.3164 11.8128 93.3164 11.1148C93.3164 10.3848 93.529 9.7858 93.9561 9.3208C94.3833 8.8558 94.9575 8.6228 95.6818 8.6228C96.3779 8.6228 96.939 8.8518 97.3622 9.3108C97.7651 9.7568 97.9676 10.3328 97.9676 11.0368ZM96.8736 11.0708C96.8736 10.6358 96.7789 10.2628 96.5905 9.9518C96.3678 9.5758 96.0535 9.3878 95.6425 9.3878C95.2194 9.3878 94.897 9.5758 94.6744 9.9518C94.485 10.2628 94.3913 10.6418 94.3913 11.0898C94.3913 11.5248 94.486 11.8978 94.6744 12.2088C94.9031 12.5848 95.2214 12.7728 95.6324 12.7728C96.0354 12.7728 96.3527 12.5818 96.5804 12.1988C96.7748 11.8818 96.8736 11.5058 96.8736 11.0708Z" fill="white"/>
<path id="n_2" d="M103.646 13.4329H102.591V10.7329C102.591 9.90087 102.273 9.48487 101.633 9.48487C101.32 9.48487 101.067 9.59887 100.872 9.82787C100.676 10.0569 100.578 10.3269 100.578 10.6359V13.4319H99.5217V10.0659C99.5217 9.65187 99.5096 9.20287 99.4844 8.71687H100.411L100.461 9.45387H100.49C100.614 9.22487 100.797 9.03587 101.037 8.88487C101.324 8.70887 101.643 8.61987 101.995 8.61987C102.437 8.61987 102.806 8.76187 103.099 9.04687C103.465 9.39587 103.646 9.91687 103.646 10.6089V13.4329Z" fill="white"/>
<path id="t" d="M110.752 9.50392H109.589V11.7939C109.589 12.3759 109.796 12.6669 110.205 12.6669C110.394 12.6669 110.551 12.6509 110.675 12.6179L110.702 13.4129C110.494 13.4909 110.22 13.5299 109.882 13.5299C109.465 13.5299 109.141 13.4039 108.906 13.1519C108.67 12.8999 108.553 12.4759 108.553 11.8809V9.50392H107.859V8.71892H108.553V7.85492L109.588 7.54492V8.71792H110.751V9.50392H110.752Z" fill="white"/>
<path id="h" d="M116.339 13.4329H115.282V10.7529C115.282 9.90791 114.964 9.48491 114.326 9.48491C113.837 9.48491 113.502 9.72991 113.319 10.2199C113.288 10.3229 113.27 10.4489 113.27 10.5969V13.4319H112.215V6.55591H113.27V9.39691H113.29C113.622 8.87991 114.099 8.62191 114.716 8.62191C115.153 8.62191 115.515 8.76391 115.802 9.04891C116.16 9.40391 116.339 9.93191 116.339 10.6299V13.4329Z" fill="white"/>
<path id="e" d="M122.105 10.853C122.105 11.041 122.091 11.199 122.066 11.328H118.899C118.913 11.794 119.065 12.149 119.358 12.395C119.626 12.615 119.971 12.725 120.394 12.725C120.863 12.725 121.29 12.651 121.675 12.502L121.84 13.23C121.39 13.424 120.86 13.521 120.246 13.521C119.511 13.521 118.932 13.306 118.512 12.876C118.091 12.446 117.883 11.869 117.883 11.145C117.883 10.434 118.077 9.84201 118.469 9.37001C118.878 8.86601 119.431 8.61401 120.129 8.61401C120.812 8.61401 121.331 8.86601 121.682 9.37001C121.965 9.77001 122.105 10.265 122.105 10.853ZM121.097 10.582C121.106 10.271 121.036 10.003 120.893 9.77701C120.71 9.48601 120.431 9.34001 120.053 9.34001C119.708 9.34001 119.427 9.48201 119.213 9.76701C119.037 9.99401 118.934 10.265 118.899 10.582H121.097Z" fill="white"/>
</g>
<g id="App Store">
<path id="A" d="M54.0409 31.504H51.7531L50.4998 27.595H46.1438L44.95 31.504H42.7227L47.0384 18.196H49.704L54.0409 31.504ZM50.1221 25.955L48.9887 22.48C48.8688 22.125 48.6442 21.289 48.3128 19.973H48.2725C48.1405 20.539 47.9279 21.375 47.6358 22.48L46.5226 25.955H50.1221Z" fill="white"/>
<path id="p" d="M65.1376 26.5879C65.1376 28.2199 64.6933 29.5099 63.8048 30.4569C63.0089 31.2999 62.0207 31.7209 60.841 31.7209C59.5676 31.7209 58.6529 31.2669 58.0958 30.3589H58.0555V35.4139H55.9077V25.0669C55.9077 24.0409 55.8805 22.9879 55.8281 21.9079H57.717L57.8369 23.4289H57.8772C58.5935 22.2829 59.6804 21.7109 61.1392 21.7109C62.2796 21.7109 63.2316 22.1579 63.9932 23.0529C64.7568 23.9489 65.1376 25.1269 65.1376 26.5879ZM62.9495 26.6659C62.9495 25.7319 62.7379 24.9619 62.3128 24.3559C61.8484 23.7239 61.2248 23.4079 60.4431 23.4079C59.9132 23.4079 59.4316 23.5839 59.0015 23.9309C58.5703 24.2809 58.2882 24.7379 58.1562 25.3039C58.0898 25.5679 58.0565 25.7839 58.0565 25.9539V27.5539C58.0565 28.2519 58.2721 28.8409 58.7033 29.3219C59.1344 29.8029 59.6946 30.0429 60.3836 30.0429C61.1926 30.0429 61.8222 29.7329 62.2725 29.1149C62.7238 28.4959 62.9495 27.6799 62.9495 26.6659Z" fill="white"/>
<path id="p_2" d="M76.2577 26.5879C76.2577 28.2199 75.8134 29.5099 74.9239 30.4569C74.129 31.2999 73.1407 31.7209 71.9611 31.7209C70.6877 31.7209 69.773 31.2669 69.2169 30.3589H69.1766V35.4139H67.0288V25.0669C67.0288 24.0409 67.0016 22.9879 66.9492 21.9079H68.8381L68.958 23.4289H68.9983C69.7135 22.2829 70.8005 21.7109 72.2603 21.7109C73.3997 21.7109 74.3517 22.1579 75.1153 23.0529C75.8759 23.9489 76.2577 25.1269 76.2577 26.5879ZM74.0696 26.6659C74.0696 25.7319 73.857 24.9619 73.4319 24.3559C72.9675 23.7239 72.3459 23.4079 71.5631 23.4079C71.0322 23.4079 70.5517 23.5839 70.1205 23.9309C69.6894 24.2809 69.4083 24.7379 69.2763 25.3039C69.2108 25.5679 69.1766 25.7839 69.1766 25.9539V27.5539C69.1766 28.2519 69.3922 28.8409 69.8213 29.3219C70.2525 29.8019 70.8126 30.0429 71.5037 30.0429C72.3127 30.0429 72.9423 29.7329 73.3926 29.1149C73.8439 28.4959 74.0696 27.6799 74.0696 26.6659Z" fill="white"/>
<path id="S" d="M88.6883 27.772C88.6883 28.904 88.2923 29.825 87.4975 30.536C86.6241 31.313 85.4081 31.701 83.8456 31.701C82.403 31.701 81.2465 31.425 80.3711 30.872L80.8688 29.095C81.8117 29.661 82.8463 29.945 83.9736 29.945C84.7825 29.945 85.4122 29.763 85.8645 29.401C86.3148 29.039 86.5395 28.553 86.5395 27.947C86.5395 27.407 86.3541 26.952 85.9824 26.583C85.6126 26.214 84.9951 25.871 84.1328 25.554C81.7855 24.685 80.6129 23.412 80.6129 21.738C80.6129 20.644 81.0239 19.747 81.8469 19.049C82.667 18.35 83.761 18.001 85.1291 18.001C86.3491 18.001 87.3625 18.212 88.1715 18.633L87.6345 20.371C86.8789 19.963 86.0247 19.759 85.0686 19.759C84.3131 19.759 83.7227 19.944 83.2996 20.312C82.942 20.641 82.7627 21.042 82.7627 21.517C82.7627 22.043 82.9672 22.478 83.3782 22.82C83.7358 23.136 84.3856 23.478 85.3286 23.847C86.482 24.308 87.3293 24.847 87.8743 25.465C88.4173 26.081 88.6883 26.852 88.6883 27.772Z" fill="white"/>
<path id="t_2" d="M95.7896 23.5078H93.4222V28.1668C93.4222 29.3518 93.8393 29.9438 94.6754 29.9438C95.0593 29.9438 95.3776 29.9108 95.6295 29.8448L95.6889 31.4638C95.2658 31.6208 94.7087 31.6998 94.0186 31.6998C93.1704 31.6998 92.5075 31.4428 92.029 30.9298C91.5525 30.4158 91.3127 29.5538 91.3127 28.3428V23.5058H89.9023V21.9058H91.3127V20.1488L93.4222 19.5168V21.9058H95.7896V23.5078Z" fill="white"/>
<path id="o_4" d="M106.473 26.6269C106.473 28.1019 106.047 29.3129 105.199 30.2599C104.31 31.2349 103.129 31.7209 101.657 31.7209C100.239 31.7209 99.1094 31.2539 98.2672 30.3199C97.425 29.3859 97.0039 28.2069 97.0039 26.7859C97.0039 25.2989 97.4371 24.0809 98.3065 23.1339C99.1739 22.1859 100.344 21.7119 101.816 21.7119C103.235 21.7119 104.376 22.1789 105.237 23.1139C106.061 24.0209 106.473 25.1919 106.473 26.6269ZM104.244 26.6959C104.244 25.8109 104.054 25.0519 103.668 24.4189C103.218 23.6529 102.574 23.2709 101.74 23.2709C100.876 23.2709 100.221 23.6539 99.7702 24.4189C99.3844 25.0529 99.194 25.8239 99.194 26.7359C99.194 27.6209 99.3844 28.3799 99.7702 29.0119C100.235 29.7779 100.883 30.1599 101.721 30.1599C102.541 30.1599 103.184 29.7699 103.649 28.9919C104.045 28.3469 104.244 27.5799 104.244 26.6959Z" fill="white"/>
<path id="r" d="M113.453 23.7829C113.241 23.7439 113.014 23.7239 112.776 23.7239C112.021 23.7239 111.436 24.0069 111.025 24.5739C110.668 25.0739 110.488 25.7059 110.488 26.4689V31.5039H108.342L108.362 24.9299C108.362 23.8239 108.335 22.8169 108.281 21.9089H110.152L110.231 23.7449H110.29C110.517 23.1139 110.874 22.6059 111.364 22.2249C111.842 21.8819 112.359 21.7109 112.916 21.7109C113.115 21.7109 113.294 21.7249 113.453 21.7499V23.7829Z" fill="white"/>
<path id="e_2" d="M123.06 26.2519C123.06 26.6339 123.035 26.9559 122.981 27.2189H116.538C116.563 28.1669 116.874 28.8919 117.473 29.3919C118.016 29.8389 118.718 30.0629 119.58 30.0629C120.534 30.0629 121.405 29.9119 122.187 29.6089L122.524 31.0889C121.609 31.4849 120.529 31.6819 119.283 31.6819C117.784 31.6819 116.607 31.2439 115.751 30.3689C114.897 29.4939 114.469 28.3189 114.469 26.8449C114.469 25.3979 114.867 24.1929 115.664 23.2319C116.498 22.2059 117.625 21.6929 119.043 21.6929C120.437 21.6929 121.491 22.2059 122.208 23.2319C122.775 24.0469 123.06 25.0549 123.06 26.2519ZM121.012 25.6989C121.026 25.0669 120.886 24.5209 120.595 24.0599C120.223 23.4669 119.652 23.1709 118.883 23.1709C118.181 23.1709 117.61 23.4599 117.174 24.0399C116.816 24.5009 116.603 25.0539 116.538 25.6979H121.012V25.6989Z" fill="white"/>
</g>
</g>
</svg>
