<svg width="65" height="64" viewBox="0 0 65 64" fill="none" xmlns="http://www.w3.org/2000/svg">
<path d="M23.5 44H13.5C13.2348 44 12.9804 43.8946 12.7929 43.7071C12.6054 43.5196 12.5 43.2652 12.5 43C12.5 42.7348 12.6054 42.4804 12.7929 42.2929C12.9804 42.1054 13.2348 42 13.5 42H23.5C23.7652 42 24.0196 42.1054 24.2071 42.2929C24.3946 42.4804 24.5 42.7348 24.5 43C24.5 43.2652 24.3946 43.5196 24.2071 43.7071C24.0196 43.8946 23.7652 44 23.5 44Z" fill="#1D1E23"/>
<path d="M54.5 49H10.5C9.17441 48.9984 7.90356 48.4711 6.96622 47.5338C6.02888 46.5964 5.50159 45.3256 5.5 44V13C5.50159 11.6744 6.02888 10.4036 6.96622 9.46622C7.90356 8.52888 9.17441 8.00159 10.5 8H18.5C18.7652 8 19.0196 8.10536 19.2071 8.29289C19.3946 8.48043 19.5 8.73478 19.5 9C19.5 9.26522 19.3946 9.51957 19.2071 9.70711C19.0196 9.89464 18.7652 10 18.5 10H10.5C9.70435 10 8.94129 10.3161 8.37868 10.8787C7.81607 11.4413 7.5 12.2044 7.5 13V44C7.5 44.7957 7.81607 45.5587 8.37868 46.1213C8.94129 46.6839 9.70435 47 10.5 47H54.5C55.2957 47 56.0587 46.6839 56.6213 46.1213C57.1839 45.5587 57.5 44.7957 57.5 44V13C57.5 12.2044 57.1839 11.4413 56.6213 10.8787C56.0587 10.3161 55.2957 10 54.5 10H46.5C46.2348 10 45.9804 9.89464 45.7929 9.70711C45.6054 9.51957 45.5 9.26522 45.5 9C45.5 8.73478 45.6054 8.48043 45.7929 8.29289C45.9804 8.10536 46.2348 8 46.5 8H54.5C55.8256 8.00159 57.0964 8.52888 58.0338 9.46622C58.9711 10.4036 59.4984 11.6744 59.5 13V44C59.4984 45.3256 58.9711 46.5964 58.0338 47.5338C57.0964 48.4711 55.8256 48.9984 54.5 49Z" fill="#1D1E23"/>
<path d="M42.5 59H22.5C21.7044 59 20.9413 58.6839 20.3787 58.1213C19.8161 57.5587 19.5 56.7956 19.5 56C19.5 55.2044 19.8161 54.4413 20.3787 53.8787C20.9413 53.3161 21.7044 53 22.5 53H42.5C43.2956 53 44.0587 53.3161 44.6213 53.8787C45.1839 54.4413 45.5 55.2044 45.5 56C45.5 56.7956 45.1839 57.5587 44.6213 58.1213C44.0587 58.6839 43.2956 59 42.5 59ZM22.5 55C22.2348 55 21.9804 55.1054 21.7929 55.2929C21.6054 55.4804 21.5 55.7348 21.5 56C21.5 56.2652 21.6054 56.5196 21.7929 56.7071C21.9804 56.8946 22.2348 57 22.5 57H42.5C42.7652 57 43.0196 56.8946 43.2071 56.7071C43.3946 56.5196 43.5 56.2652 43.5 56C43.5 55.7348 43.3946 55.4804 43.2071 55.2929C43.0196 55.1054 42.7652 55 42.5 55H22.5Z" fill="#1D1E23"/>
<path d="M54.5 49H10.5C9.17441 48.9984 7.90356 48.4711 6.96622 47.5338C6.02888 46.5964 5.50159 45.3256 5.5 44V38C5.5 37.7348 5.60536 37.4804 5.79289 37.2929C5.98043 37.1054 6.23478 37 6.5 37H58.5C58.7652 37 59.0196 37.1054 59.2071 37.2929C59.3946 37.4804 59.5 37.7348 59.5 38V44C59.4984 45.3256 58.9711 46.5964 58.0338 47.5338C57.0964 48.4711 55.8256 48.9984 54.5 49ZM7.5 39V44C7.5 44.7956 7.81607 45.5587 8.37868 46.1213C8.94129 46.6839 9.70435 47 10.5 47H54.5C55.2957 47 56.0587 46.6839 56.6213 46.1213C57.1839 45.5587 57.5 44.7956 57.5 44V39H7.5Z" fill="#1D1E23"/>
<path d="M40.5002 55H24.5002C24.3418 55 24.1856 54.9624 24.0445 54.8903C23.9035 54.8181 23.7816 54.7134 23.6889 54.5849C23.5962 54.4564 23.5354 54.3077 23.5115 54.151C23.4875 53.9944 23.5012 53.8343 23.5512 53.684L25.5512 47.684C25.6176 47.4848 25.745 47.3115 25.9153 47.1888C26.0856 47.066 26.2903 46.9999 26.5002 47H38.5002C38.71 47.0002 38.9145 47.0663 39.0846 47.189C39.2547 47.3118 39.3819 47.485 39.4482 47.684L41.4482 53.684C41.4983 53.8343 41.5119 53.9942 41.488 54.1508C41.4642 54.3074 41.4034 54.456 41.3109 54.5845C41.2183 54.713 41.0965 54.8177 40.9556 54.8899C40.8147 54.9621 40.6586 54.9999 40.5002 55ZM25.8872 53H39.1122L37.7792 49H27.2212L25.8872 53Z" fill="#1D1E23"/>
<path d="M26.5 46C25.9067 46 25.3266 45.8241 24.8333 45.4944C24.3399 45.1648 23.9554 44.6962 23.7284 44.148C23.5013 43.5999 23.4419 42.9967 23.5576 42.4147C23.6734 41.8328 23.9591 41.2982 24.3787 40.8787C24.7982 40.4591 25.3328 40.1734 25.9147 40.0576C26.4967 39.9419 27.0999 40.0013 27.6481 40.2284C28.1962 40.4554 28.6648 40.8399 28.9944 41.3333C29.3241 41.8266 29.5 42.4067 29.5 43C29.5 43.7957 29.1839 44.5587 28.6213 45.1213C28.0587 45.6839 27.2957 46 26.5 46ZM26.5 42C26.3022 42 26.1089 42.0586 25.9444 42.1685C25.78 42.2784 25.6518 42.4346 25.5761 42.6173C25.5004 42.8 25.4806 43.0011 25.5192 43.1951C25.5578 43.3891 25.653 43.5673 25.7929 43.7071C25.9327 43.847 26.1109 43.9422 26.3049 43.9808C26.4989 44.0194 26.7 43.9996 26.8827 43.9239C27.0654 43.8482 27.2216 43.72 27.3315 43.5556C27.4414 43.3911 27.5 43.1978 27.5 43C27.5 42.7348 27.3946 42.4804 27.2071 42.2929C27.0196 42.1054 26.7652 42 26.5 42Z" fill="#1D1E23"/>
<path d="M51.5 44H33.5C33.2348 44 32.9804 43.8946 32.7929 43.7071C32.6054 43.5196 32.5 43.2652 32.5 43C32.5 42.7348 32.6054 42.4804 32.7929 42.2929C32.9804 42.1054 33.2348 42 33.5 42H51.5C51.7652 42 52.0196 42.1054 52.2071 42.2929C52.3946 42.4804 52.5 42.7348 52.5 43C52.5 43.2652 52.3946 43.5196 52.2071 43.7071C52.0196 43.8946 51.7652 44 51.5 44Z" fill="#1D1E23"/>
<path d="M29.5 33C29.3448 33 29.1916 32.9639 29.0528 32.8944C28.9139 32.825 28.7931 32.7242 28.7 32.6L26 29H20.5C19.7044 29 18.9413 28.6839 18.3787 28.1213C17.8161 27.5587 17.5 26.7956 17.5 26V8C17.5 7.20435 17.8161 6.44129 18.3787 5.87868C18.9413 5.31607 19.7044 5 20.5 5H44.5C45.2956 5 46.0587 5.31607 46.6213 5.87868C47.1839 6.44129 47.5 7.20435 47.5 8V26C47.5 26.7956 47.1839 27.5587 46.6213 28.1213C46.0587 28.6839 45.2956 29 44.5 29H33L30.3 32.6C30.2069 32.7242 30.0861 32.825 29.9472 32.8944C29.8084 32.9639 29.6552 33 29.5 33ZM20.5 7C20.2348 7 19.9804 7.10536 19.7929 7.29289C19.6054 7.48043 19.5 7.73478 19.5 8V26C19.5 26.2652 19.6054 26.5196 19.7929 26.7071C19.9804 26.8946 20.2348 27 20.5 27H26.5C26.6552 27 26.8084 27.0361 26.9472 27.1056C27.0861 27.175 27.2069 27.2758 27.3 27.4L29.5 30.333L31.7 27.4C31.7931 27.2758 31.9139 27.175 32.0528 27.1056C32.1916 27.0361 32.3448 27 32.5 27H44.5C44.7652 27 45.0196 26.8946 45.2071 26.7071C45.3946 26.5196 45.5 26.2652 45.5 26V8C45.5 7.73478 45.3946 7.48043 45.2071 7.29289C45.0196 7.10536 44.7652 7 44.5 7H20.5Z" fill="#1D1E23"/>
<path d="M31.5 21.159C30.9696 21.159 30.4609 20.9483 30.0858 20.5732C29.7107 20.1981 29.5 19.6894 29.5 19.159V13.047C29.5002 12.6725 29.6054 12.3057 29.8038 11.9881C30.0023 11.6705 30.2858 11.415 30.6223 11.2507C30.9588 11.0864 31.3346 11.0198 31.7071 11.0586C32.0795 11.0974 32.4336 11.2399 32.729 11.47L37.007 14.8C37.2584 14.996 37.4593 15.2493 37.593 15.5387C37.7267 15.8282 37.7892 16.1453 37.7754 16.4638C37.7616 16.7823 37.6719 17.0929 37.5137 17.3697C37.3555 17.6465 37.1334 17.8815 36.866 18.055L32.589 20.833C32.2652 21.0447 31.8869 21.158 31.5 21.159ZM31.494 13.043L31.5 19.158L35.777 16.38L31.5 13.047L31.494 13.043Z" fill="#1D1E23"/>
</svg>
