<svg width="72" height="40" viewBox="0 0 72 40" fill="none" xmlns="http://www.w3.org/2000/svg">
<path d="M31.9487 16.1764C30.3043 16.1764 28.7597 15.8078 27.4166 15.1627V33.1415C27.4166 36.9285 30.9515 39.9996 35.3138 39.9996C35.9588 39.9996 36.4807 39.5453 36.4807 38.9859V15.1605C35.1377 15.8056 33.593 16.1742 31.9487 16.1742V16.1764Z" fill="url(#paint0_linear_441772_7546)"/>
<path fill-rule="evenodd" clip-rule="evenodd" d="M0 8.28567V10.3602C0 14.2715 3.13806 17.4412 7.01025 17.4412H7.77532V32.0232C7.77532 36.4295 11.3101 40 15.6725 40C16.3175 40 16.8394 39.4728 16.8394 38.8212V17.4412H24.6186V15.3666C24.6186 11.4554 21.4784 8.28567 17.6084 8.28567H16.8394H7.77532H0Z" fill="url(#paint1_linear_441772_7546)"/>
<path d="M62.0352 39.6868L71.8589 10.8658C72.3469 9.43414 71.5194 8.26184 70.0214 8.26184H64.8316C63.7538 8.26184 62.5911 9.10624 62.2495 10.1392L56.665 27.023L51.0806 10.1392C50.739 9.10624 49.5763 8.26184 48.4984 8.26184H43.6015C42.1162 8.26184 41.2866 9.42557 41.7577 10.8486L51.297 39.6847C51.3755 39.9247 51.6365 40.0554 51.8741 39.9762H61.4581C61.6957 40.0554 61.9567 39.9269 62.0394 39.6868H62.0352Z" fill="url(#paint2_linear_441772_7546)"/>
<path fill-rule="evenodd" clip-rule="evenodd" d="M24.4606 7.58134C24.4606 3.39428 27.8202 0 31.9646 0C36.1089 0 39.4685 3.39428 39.4685 7.58134C39.4685 11.7684 36.1089 15.1627 31.9646 15.1627C27.8202 15.1627 24.4606 11.7684 24.4606 7.58134Z" fill="#EE5D2A"/>
<path d="M31.9161 6.32674C32.9331 6.32674 33.7575 5.49378 33.7575 4.46629C33.7575 3.43879 32.9331 2.60583 31.9161 2.60583C30.899 2.60583 30.0746 3.43879 30.0746 4.46629C30.0746 5.49378 30.899 6.32674 31.9161 6.32674Z" fill="white"/>
<path fill-rule="evenodd" clip-rule="evenodd" d="M31.5515 15.1635V10.0472H32.3802V15.1635H31.5515Z" fill="white"/>
<path fill-rule="evenodd" clip-rule="evenodd" d="M31.7305 12.8777H31.9836C32.0052 12.8777 32.1353 12.8764 32.3459 12.8501C32.4706 10.2536 34.4819 9.02649 34.4819 9.02649C33.126 10.1684 32.9928 12.4722 32.982 12.7294C33.8595 12.5088 35.1759 11.96 36.3588 10.5955C38.3352 8.31729 37.5391 5.75634 37.5047 5.6484L37.4233 5.39526L37.1766 5.4865C31.7928 7.46535 31.7305 10.3064 31.7305 10.4259V12.8777Z" fill="white"/>
<path fill-rule="evenodd" clip-rule="evenodd" d="M32.3542 12.8777H32.1011C32.0795 12.8777 31.9495 12.8764 31.7389 12.8501C31.6141 10.2536 29.6028 9.02649 29.6028 9.02649C30.9587 10.1684 31.092 12.4722 31.1027 12.7294C30.2252 12.5088 28.9088 11.96 27.7259 10.5955C25.7495 8.31729 26.5457 5.75634 26.58 5.6484L26.6614 5.39526L26.9081 5.4865C32.2919 7.46535 32.3542 10.3064 32.3542 10.4259V12.8777Z" fill="white"/>
<defs>
<linearGradient id="paint0_linear_441772_7546" x1="27.6883" y1="38.9403" x2="41.501" y2="32.7532" gradientUnits="userSpaceOnUse">
<stop stop-color="#ED3224"/>
<stop offset="1" stop-color="#ED772C"/>
</linearGradient>
<linearGradient id="paint1_linear_441772_7546" x1="0.737896" y1="17.0508" x2="4.52483" y2="4.55135" gradientUnits="userSpaceOnUse">
<stop stop-color="#ED3224"/>
<stop offset="1" stop-color="#ED772C"/>
</linearGradient>
<linearGradient id="paint2_linear_441772_7546" x1="42.536" y1="38.6461" x2="65.8858" y2="11.2163" gradientUnits="userSpaceOnUse">
<stop stop-color="#ED3224"/>
<stop offset="1" stop-color="#ED772C"/>
</linearGradient>
</defs>
</svg>
