<svg width="65" height="64" viewBox="0 0 65 64" fill="none" xmlns="http://www.w3.org/2000/svg">
<g clip-path="url(#clip0_22910_294622)">
<path fill-rule="evenodd" clip-rule="evenodd" d="M29.1445 48.375C29.1445 47.6846 29.7042 47.125 30.3945 47.125H63.2493C63.9396 47.125 64.4993 47.6846 64.4993 48.375V55.875C64.4993 56.5654 63.9396 57.125 63.2493 57.125H39.4749C38.7845 57.125 38.2249 56.5654 38.2249 55.875C38.2249 55.1846 38.7845 54.625 39.4749 54.625H61.9993V49.625H30.3945C29.7042 49.625 29.1445 49.0654 29.1445 48.375Z" fill="#1D1E23"/>
<path fill-rule="evenodd" clip-rule="evenodd" d="M0.5 48.375C0.5 47.6846 1.05964 47.125 1.75 47.125H15.414C16.1044 47.125 16.664 47.6846 16.664 48.375C16.664 49.0654 16.1044 49.625 15.414 49.625H3V54.625H6.46275C7.15311 54.625 7.71275 55.1846 7.71275 55.875C7.71275 56.5654 7.15311 57.125 6.46275 57.125H1.75C1.05964 57.125 0.5 56.5654 0.5 55.875V48.375Z" fill="#1D1E23"/>
<path fill-rule="evenodd" clip-rule="evenodd" d="M51.7466 36.5601C51.949 35.9001 52.6481 35.529 53.3081 35.7314L59.8946 37.7508L59.8947 37.7508C62.6308 38.5898 64.499 41.1164 64.499 43.9784V48.374C64.499 49.0644 63.9393 49.624 63.249 49.624C62.5586 49.624 61.999 49.0644 61.999 48.374V43.9784C61.999 42.2149 60.8479 40.658 59.1618 40.141C59.1618 40.141 59.1618 40.141 59.1618 40.1409L52.5753 38.1216C51.9153 37.9192 51.5443 37.2201 51.7466 36.5601Z" fill="#1D1E23"/>
<path fill-rule="evenodd" clip-rule="evenodd" d="M48.321 36.5583C48.5245 37.218 48.1546 37.9177 47.4949 38.1211L40.9599 40.1364C40.9599 40.1364 40.9599 40.1364 40.9599 40.1364C39.277 40.6554 38.1289 42.2108 38.1289 43.9719V48.2491C38.1289 48.9395 37.5693 49.4991 36.8789 49.4991C36.1886 49.4991 35.6289 48.9395 35.6289 48.2491V43.9719C35.6289 41.1138 37.4921 38.5896 40.2232 37.7474L40.2232 37.7474L46.7582 35.7321C47.4179 35.5287 48.1176 35.8986 48.321 36.5583Z" fill="#1D1E23"/>
<path fill-rule="evenodd" clip-rule="evenodd" d="M50.0664 36.4977C50.7568 36.4977 51.3164 37.0574 51.3164 37.7477V40.8375C51.3164 41.5279 50.7568 42.0875 50.0664 42.0875C49.3761 42.0875 48.8164 41.5279 48.8164 40.8375V37.7477C48.8164 37.0574 49.3761 36.4977 50.0664 36.4977Z" fill="#1D1E23"/>
<path fill-rule="evenodd" clip-rule="evenodd" d="M51.2689 18.8221C50.483 18.6748 49.6767 18.6748 48.8908 18.8221C45.3227 19.491 43.0292 22.96 43.7622 26.475C47.992 26.3521 51.4249 25.2055 53.1166 23.7683C53.6065 23.3521 54.3322 23.3753 54.7945 23.8219C55.4393 24.4449 56.0094 25.1452 56.4898 25.9083C56.88 22.5949 54.6451 19.4551 51.2689 18.8221ZM51.4992 17.5935L51.2689 18.8221L51.4992 17.5935ZM55.2158 28.9862L55.2157 31.1412C55.2157 31.7693 55.6817 32.2998 56.3045 32.3808C56.9274 32.4618 57.5136 32.0681 57.6742 31.4609L58.7464 27.4067L58.7484 27.3993C60.042 22.3832 56.8211 17.3196 51.7296 16.3649L51.7296 16.3649C50.6392 16.1605 49.5205 16.1605 48.4301 16.3649L48.4301 16.3649C43.3387 17.3194 40.1177 22.3831 41.4113 27.3993C41.4113 27.3993 41.4113 27.3993 41.4113 27.3993L42.4568 31.4534C42.614 32.063 43.2 32.4605 43.8245 32.3813C44.4491 32.3021 44.9172 31.7708 44.9172 31.1413V28.9213C48.426 28.681 51.5988 27.7805 53.7636 26.3891C54.3883 27.1574 54.8832 28.0343 55.2158 28.9862Z" fill="#1D1E23"/>
<path fill-rule="evenodd" clip-rule="evenodd" d="M43.6641 27.0898C44.3544 27.0898 44.9141 27.6494 44.9141 28.3398V31.1413C44.9141 33.985 47.2194 36.2904 50.0633 36.2904C52.9072 36.2904 55.2126 33.985 55.2126 31.1413V28.3398C55.2126 27.6494 55.7722 27.0898 56.4626 27.0898C57.1529 27.0898 57.7126 27.6494 57.7126 28.3398V31.1413C57.7126 35.3657 54.2879 38.7904 50.0633 38.7904C45.8387 38.7904 42.4141 35.3657 42.4141 31.1413V28.3398C42.4141 27.6494 42.9737 27.0898 43.6641 27.0898Z" fill="#1D1E23"/>
<path fill-rule="evenodd" clip-rule="evenodd" d="M26.9263 47.385C27.1287 46.7249 27.8278 46.3539 28.4878 46.5563L35.0118 48.5564L35.0118 48.5564C38.2734 49.5564 40.5002 52.5681 40.5002 55.9795V62.75C40.5002 63.4404 39.9405 64 39.2502 64H28.5576C27.8672 64 27.3076 63.4404 27.3076 62.75C27.3076 62.0596 27.8672 61.5 28.5576 61.5H38.0002V55.9795C38.0002 53.6666 36.4904 51.6246 34.279 50.9466C34.279 50.9466 34.279 50.9466 34.279 50.9466L27.755 48.9465C27.095 48.7441 26.724 48.045 26.9263 47.385Z" fill="#1D1E23"/>
<path fill-rule="evenodd" clip-rule="evenodd" d="M19.0049 47.3431C19.2084 48.0029 18.8385 48.7026 18.1788 48.906L11.58 50.9409L11.58 50.9409C9.3728 51.6215 7.86719 53.6614 7.86719 55.9712V61.5H17.3098C18.0002 61.5 18.5598 62.0596 18.5598 62.75C18.5598 63.4404 18.0002 64 17.3098 64H6.61719C5.92683 64 5.36719 63.4404 5.36719 62.75V55.9712C5.36719 52.5646 7.58782 49.5558 10.8433 48.5519C10.8433 48.5519 10.8433 48.5519 10.8434 48.5519L17.4421 46.517C18.1018 46.3136 18.8015 46.6834 19.0049 47.3431Z" fill="#1D1E23"/>
<path fill-rule="evenodd" clip-rule="evenodd" d="M22.9331 27.633C18.5669 27.633 15.0273 31.1725 15.0273 35.5387V39.9567C15.0273 44.3229 18.5669 47.8625 22.9332 47.8625C27.2995 47.8625 30.8391 44.3229 30.8388 39.9568V35.5387C30.8388 31.1726 27.2994 27.633 22.9331 27.633ZM12.5273 35.5387C12.5273 29.7918 17.1862 25.133 22.9331 25.133C28.6801 25.133 33.3388 29.7919 33.3388 35.5387V39.9567C33.3388 39.9567 33.3388 39.9567 33.3388 39.9567C33.3391 45.7036 28.6802 50.3625 22.9332 50.3625C17.1862 50.3625 12.5273 45.7036 12.5273 39.9567V35.5387Z" fill="#1D1E23"/>
<path fill-rule="evenodd" clip-rule="evenodd" d="M16.7531 2.5C12.8854 2.5 9.75 5.63547 9.75 9.50313C9.75 13.3709 12.8854 16.5064 16.7531 16.5063H31.6052C32.18 16.5063 32.6806 16.8982 32.8187 17.4561C33.0247 18.2888 33.622 19.0911 34.4954 19.6999C34.8023 19.9138 35.1322 20.0957 35.4738 20.2416C35.2743 19.4419 35.1687 18.5955 35.2056 17.7046C35.2333 17.0349 35.7842 16.5063 36.4545 16.5063H36.459C40.3267 16.5063 43.4621 13.3709 43.4621 9.50313C43.4621 5.63547 40.3268 2.5 36.459 2.5H16.7531ZM7.25 9.50313C7.25 4.25478 11.5046 0 16.7531 0H36.459C41.7075 0 45.9621 4.25478 45.9621 9.50313C45.9621 14.3105 42.3924 18.2841 37.7592 18.918C37.8755 19.7502 38.1525 20.5627 38.5365 21.37C38.7206 21.7573 38.6934 22.212 38.4644 22.5745C38.2354 22.937 37.8365 23.1569 37.4076 23.1569C35.866 23.1569 34.3167 22.6227 33.0658 21.7508C32.0822 21.0652 31.2274 20.13 30.7212 19.0063H16.7532C16.7531 19.0063 16.7532 19.0063 16.7532 19.0063C11.5046 19.0064 7.25 14.7516 7.25 9.50313Z" fill="#1D1E23"/>
<path fill-rule="evenodd" clip-rule="evenodd" d="M15.5117 12.2531C15.5117 11.5628 16.0714 11.0031 16.7617 11.0031H28.3171C29.0075 11.0031 29.5671 11.5628 29.5671 12.2531C29.5671 12.9435 29.0075 13.5031 28.3171 13.5031H16.7617C16.0714 13.5031 15.5117 12.9435 15.5117 12.2531Z" fill="#1D1E23"/>
<path fill-rule="evenodd" clip-rule="evenodd" d="M15.5117 6.75313C15.5117 6.06277 16.0714 5.50313 16.7617 5.50313H36.4471C37.1374 5.50313 37.6971 6.06277 37.6971 6.75313C37.6971 7.44348 37.1374 8.00313 36.4471 8.00313H16.7617C16.0714 8.00313 15.5117 7.44348 15.5117 6.75313Z" fill="#1D1E23"/>
</g>
<defs>
<clipPath id="clip0_22910_294622">
<rect width="64" height="64" fill="white" transform="translate(0.5)"/>
</clipPath>
</defs>
</svg>
