<svg width="64" height="64" viewBox="0 0 64 64" fill="none" xmlns="http://www.w3.org/2000/svg">
<path d="M36 39H38V59H36V39Z" fill="black"/>
<path d="M31 45H33V59H31V45Z" fill="black"/>
<path d="M32 20C30.4092 19.9984 28.884 19.3658 27.7591 18.2409C26.6342 17.116 26.0016 15.5908 26 14V13C26 11.4087 26.6321 9.88258 27.7574 8.75736C28.8826 7.63214 30.4087 7 32 7C33.5913 7 35.1174 7.63214 36.2426 8.75736C37.3679 9.88258 38 11.4087 38 13V14C37.9984 15.5908 37.3658 17.116 36.2409 18.2409C35.116 19.3658 33.5908 19.9984 32 20ZM32 9C30.9391 9 29.9217 9.42143 29.1716 10.1716C28.4214 10.9217 28 11.9391 28 13V14C28 15.0609 28.4214 16.0783 29.1716 16.8284C29.9217 17.5786 30.9391 18 32 18C33.0609 18 34.0783 17.5786 34.8284 16.8284C35.5786 16.0783 36 15.0609 36 14V13C36 11.9391 35.5786 10.9217 34.8284 10.1716C34.0783 9.42143 33.0609 9 32 9Z" fill="black"/>
<path d="M39.5 43C38.5717 43 37.6815 42.6313 37.0251 41.9749C36.3687 41.3185 36 40.4283 36 39.5V30H38V39.5C38 39.8978 38.158 40.2794 38.4393 40.5607C38.7206 40.842 39.1022 41 39.5 41C39.8978 41 40.2794 40.842 40.5607 40.5607C40.842 40.2794 41 39.8978 41 39.5V26C41 25.2044 40.6839 24.4413 40.1213 23.8787C39.5587 23.3161 38.7956 23 38 23H26C25.2044 23 24.4413 23.3161 23.8787 23.8787C23.3161 24.4413 23 25.2044 23 26V39.5C23 39.8978 23.158 40.2794 23.4393 40.5607C23.7206 40.842 24.1022 41 24.5 41C24.8978 41 25.2794 40.842 25.5607 40.5607C25.842 40.2794 26 39.8978 26 39.5V30H28V39.5C28 40.4283 27.6313 41.3185 26.9749 41.9749C26.3185 42.6313 25.4283 43 24.5 43C23.5717 43 22.6815 42.6313 22.0251 41.9749C21.3687 41.3185 21 40.4283 21 39.5V26C21.0016 24.6744 21.5289 23.4036 22.4662 22.4662C23.4036 21.5289 24.6744 21.0016 26 21H38C39.3256 21.0016 40.5964 21.5289 41.5338 22.4662C42.4711 23.4036 42.9984 24.6744 43 26V39.5C43 40.4283 42.6313 41.3185 41.9749 41.9749C41.3185 42.6313 40.4283 43 39.5 43Z" fill="black"/>
<path d="M26 39H28V59H26V39Z" fill="black"/>
<path d="M10.2891 11.7073L11.7031 10.2933L18.7017 17.2919L17.2877 18.7059L10.2891 11.7073Z" fill="black"/>
<path d="M8 13C7.0111 13 6.0444 12.7068 5.22215 12.1573C4.39991 11.6079 3.75904 10.827 3.3806 9.91342C3.00217 8.99979 2.90315 7.99446 3.09608 7.02455C3.289 6.05465 3.76521 5.16373 4.46447 4.46447C5.16373 3.76521 6.05465 3.289 7.02455 3.09608C7.99446 2.90315 8.99979 3.00217 9.91342 3.3806C10.827 3.75904 11.6079 4.39991 12.1573 5.22215C12.7068 6.0444 13 7.0111 13 8C12.9984 9.3256 12.4711 10.5964 11.5338 11.5338C10.5964 12.4711 9.3256 12.9984 8 13ZM8 5C7.40666 5 6.82664 5.17595 6.33329 5.50559C5.83994 5.83524 5.45543 6.30377 5.22836 6.85195C5.0013 7.40013 4.94189 8.00333 5.05765 8.58527C5.1734 9.16722 5.45912 9.70177 5.87868 10.1213C6.29824 10.5409 6.83279 10.8266 7.41473 10.9424C7.99667 11.0581 8.59987 10.9987 9.14805 10.7716C9.69623 10.5446 10.1648 10.1601 10.4944 9.66671C10.8241 9.17337 11 8.59335 11 8C11 7.20435 10.6839 6.44129 10.1213 5.87868C9.55871 5.31607 8.79565 5 8 5Z" fill="black"/>
<path d="M10.2852 52.2886L17.2837 45.29L18.6977 46.704L11.6992 53.7026L10.2852 52.2886Z" fill="black"/>
<path d="M8 61C7.0111 61 6.0444 60.7068 5.22215 60.1574C4.39991 59.6079 3.75904 58.8271 3.3806 57.9134C3.00217 56.9998 2.90315 55.9945 3.09608 55.0245C3.289 54.0546 3.76521 53.1637 4.46447 52.4645C5.16373 51.7652 6.05465 51.289 7.02455 51.0961C7.99446 50.9031 8.99979 51.0022 9.91342 51.3806C10.827 51.759 11.6079 52.3999 12.1573 53.2222C12.7068 54.0444 13 55.0111 13 56C12.9984 57.3256 12.4711 58.5964 11.5338 59.5338C10.5964 60.4711 9.3256 60.9984 8 61ZM8 53C7.40666 53 6.82664 53.176 6.33329 53.5056C5.83994 53.8352 5.45543 54.3038 5.22836 54.852C5.0013 55.4001 4.94189 56.0033 5.05765 56.5853C5.1734 57.1672 5.45912 57.7018 5.87868 58.1213C6.29824 58.5409 6.83279 58.8266 7.41473 58.9424C7.99667 59.0581 8.59987 58.9987 9.14805 58.7716C9.69623 58.5446 10.1648 58.1601 10.4944 57.6667C10.8241 57.1734 11 56.5933 11 56C11 55.2044 10.6839 54.4413 10.1213 53.8787C9.55871 53.3161 8.79565 53 8 53Z" fill="black"/>
<path d="M8 37C7.0111 37 6.0444 36.7068 5.22215 36.1574C4.39991 35.6079 3.75904 34.8271 3.3806 33.9134C3.00217 32.9998 2.90315 31.9945 3.09608 31.0246C3.289 30.0546 3.76521 29.1637 4.46447 28.4645C5.16373 27.7652 6.05465 27.289 7.02455 27.0961C7.99446 26.9031 8.99979 27.0022 9.91342 27.3806C10.827 27.759 11.6079 28.3999 12.1573 29.2222C12.7068 30.0444 13 31.0111 13 32C12.9984 33.3256 12.4711 34.5964 11.5338 35.5338C10.5964 36.4711 9.3256 36.9984 8 37ZM8 29C7.40666 29 6.82664 29.1759 6.33329 29.5056C5.83994 29.8352 5.45543 30.3038 5.22836 30.852C5.0013 31.4001 4.94189 32.0033 5.05765 32.5853C5.1734 33.1672 5.45912 33.7018 5.87868 34.1213C6.29824 34.5409 6.83279 34.8266 7.41473 34.9424C7.99667 35.0581 8.59987 34.9987 9.14805 34.7716C9.69623 34.5446 10.1648 34.1601 10.4944 33.6667C10.8241 33.1734 11 32.5933 11 32C11 31.2044 10.6839 30.4413 10.1213 29.8787C9.55871 29.3161 8.79565 29 8 29Z" fill="black"/>
<path d="M12 31H19V33H12V31Z" fill="black"/>
<path d="M45.2852 17.2966L52.2838 10.298L53.6978 11.712L46.6992 18.7106L45.2852 17.2966Z" fill="black"/>
<path d="M56 13C55.0111 13 54.0444 12.7068 53.2222 12.1573C52.3999 11.6079 51.759 10.827 51.3806 9.91342C51.0022 8.99979 50.9031 7.99446 51.0961 7.02455C51.289 6.05465 51.7652 5.16373 52.4645 4.46447C53.1637 3.76521 54.0546 3.289 55.0245 3.09608C55.9945 2.90315 56.9998 3.00217 57.9134 3.3806C58.8271 3.75904 59.6079 4.39991 60.1574 5.22215C60.7068 6.0444 61 7.0111 61 8C60.9984 9.3256 60.4711 10.5964 59.5338 11.5338C58.5964 12.4711 57.3256 12.9984 56 13ZM56 5C55.4067 5 54.8266 5.17595 54.3333 5.50559C53.8399 5.83524 53.4554 6.30377 53.2284 6.85195C53.0013 7.40013 52.9419 8.00333 53.0576 8.58527C53.1734 9.16722 53.4591 9.70177 53.8787 10.1213C54.2982 10.5409 54.8328 10.8266 55.4147 10.9424C55.9967 11.0581 56.5999 10.9987 57.1481 10.7716C57.6962 10.5446 58.1648 10.1601 58.4944 9.66671C58.8241 9.17337 59 8.59335 59 8C59 7.20435 58.6839 6.44129 58.1213 5.87868C57.5587 5.31607 56.7957 5 56 5Z" fill="black"/>
<path d="M45.2812 46.7073L46.6952 45.2933L53.6938 52.2919L52.2798 53.7059L45.2812 46.7073Z" fill="black"/>
<path d="M56 61C55.0111 61 54.0444 60.7068 53.2222 60.1574C52.3999 59.6079 51.759 58.8271 51.3806 57.9134C51.0022 56.9998 50.9031 55.9945 51.0961 55.0245C51.289 54.0546 51.7652 53.1637 52.4645 52.4645C53.1637 51.7652 54.0546 51.289 55.0245 51.0961C55.9945 50.9031 56.9998 51.0022 57.9134 51.3806C58.8271 51.759 59.6079 52.3999 60.1574 53.2222C60.7068 54.0444 61 55.0111 61 56C60.9984 57.3256 60.4711 58.5964 59.5338 59.5338C58.5964 60.4711 57.3256 60.9984 56 61ZM56 53C55.4067 53 54.8266 53.176 54.3333 53.5056C53.8399 53.8352 53.4554 54.3038 53.2284 54.852C53.0013 55.4001 52.9419 56.0033 53.0576 56.5853C53.1734 57.1672 53.4591 57.7018 53.8787 58.1213C54.2982 58.5409 54.8328 58.8266 55.4147 58.9424C55.9967 59.0581 56.5999 58.9987 57.1481 58.7716C57.6962 58.5446 58.1648 58.1601 58.4944 57.6667C58.8241 57.1734 59 56.5933 59 56C59 55.2044 58.6839 54.4413 58.1213 53.8787C57.5587 53.3161 56.7957 53 56 53Z" fill="black"/>
<path d="M56 37C55.0111 37 54.0444 36.7068 53.2222 36.1574C52.3999 35.6079 51.759 34.8271 51.3806 33.9134C51.0022 32.9998 50.9031 31.9945 51.0961 31.0246C51.289 30.0546 51.7652 29.1637 52.4645 28.4645C53.1637 27.7652 54.0546 27.289 55.0245 27.0961C55.9945 26.9031 56.9998 27.0022 57.9134 27.3806C58.8271 27.759 59.6079 28.3999 60.1574 29.2222C60.7068 30.0444 61 31.0111 61 32C60.9984 33.3256 60.4711 34.5964 59.5338 35.5338C58.5964 36.4711 57.3256 36.9984 56 37ZM56 29C55.4067 29 54.8266 29.1759 54.3333 29.5056C53.8399 29.8352 53.4554 30.3038 53.2284 30.852C53.0013 31.4001 52.9419 32.0033 53.0576 32.5853C53.1734 33.1672 53.4591 33.7018 53.8787 34.1213C54.2982 34.5409 54.8328 34.8266 55.4147 34.9424C55.9967 35.0581 56.5999 34.9987 57.1481 34.7716C57.6962 34.5446 58.1648 34.1601 58.4944 33.6667C58.8241 33.1734 59 32.5933 59 32C59 31.2044 58.6839 30.4413 58.1213 29.8787C57.5587 29.3161 56.7957 29 56 29Z" fill="black"/>
<path d="M45 31H52V33H45V31Z" fill="black"/>
</svg>
