<svg width="24" height="24" viewBox="0 0 24 24" fill="none" xmlns="http://www.w3.org/2000/svg">
<g id="PhoneCall">
<path id="Vector" d="M20.8125 14.8499L16.4156 12.9749C16.1888 12.8732 15.9397 12.831 15.692 12.8524C15.4443 12.8737 15.2061 12.9578 15 13.0968L12.6469 14.6624C11.2127 13.9658 10.0516 12.8113 9.34687 11.3811L10.9031 8.99989C11.0412 8.79352 11.1255 8.55594 11.1484 8.30873C11.1713 8.06151 11.1321 7.81249 11.0344 7.58426L9.15 3.18739C9.01851 2.89049 8.79586 2.6432 8.51435 2.48138C8.23284 2.31955 7.90711 2.2516 7.58437 2.28739C6.31837 2.45323 5.15566 3.07317 4.31243 4.03194C3.46919 4.99071 3.00281 6.22306 3 7.49989C3 14.9436 9.05625 20.9999 16.5 20.9999C17.7768 20.9971 19.0092 20.5307 19.9679 19.6875C20.9267 18.8442 21.5467 17.6815 21.7125 16.4155C21.7483 16.0928 21.6803 15.767 21.5185 15.4855C21.3567 15.204 21.1094 14.9814 20.8125 14.8499Z" fill="#667085"/>
<path id="Vector_2" d="M14.7552 4.47197C15.8968 4.78386 16.9373 5.38803 17.7742 6.22485C18.611 7.06167 19.2151 8.10223 19.527 9.24384C19.5684 9.40412 19.6617 9.54621 19.7922 9.64795C19.9228 9.7497 20.0834 9.80539 20.2489 9.80634C20.3155 9.80622 20.3818 9.79675 20.4458 9.77822C20.5411 9.75327 20.6305 9.70955 20.7088 9.64961C20.787 9.58968 20.8525 9.51473 20.9014 9.42917C20.9502 9.3436 20.9816 9.24914 20.9935 9.15132C21.0054 9.05349 20.9977 8.95427 20.9708 8.85947C20.5958 7.46136 19.8596 6.18652 18.836 5.16297C17.8125 4.13942 16.5376 3.40319 15.1395 3.02822C15.0417 2.99258 14.9375 2.9777 14.8336 2.98452C14.7297 2.99135 14.6284 3.01974 14.5361 3.06788C14.4437 3.11602 14.3625 3.18285 14.2974 3.26413C14.2323 3.3454 14.1848 3.43934 14.1581 3.53996C14.1313 3.64057 14.1257 3.74567 14.1418 3.84854C14.1578 3.95142 14.1951 4.04983 14.2513 4.1375C14.3075 4.22517 14.3813 4.30019 14.468 4.35777C14.5548 4.41536 14.6526 4.45425 14.7552 4.47197Z" fill="#667085"/>
<path id="Vector_3" d="M13.9778 7.3687C14.6124 7.5424 15.1908 7.87841 15.656 8.34364C16.1212 8.80886 16.4572 9.38724 16.6309 10.0218C16.6709 10.1829 16.7637 10.3259 16.8946 10.4279C17.0255 10.5299 17.1869 10.585 17.3528 10.5843C17.4164 10.5849 17.4797 10.5754 17.5403 10.5562C17.6365 10.5323 17.7269 10.4893 17.8062 10.4298C17.8854 10.3703 17.952 10.2955 18.0018 10.2098C18.0516 10.1242 18.0838 10.0293 18.0963 9.93103C18.1088 9.83271 18.1015 9.73288 18.0747 9.63745C17.8379 8.74636 17.3699 7.93368 16.7179 7.28173C16.066 6.62977 15.2533 6.16171 14.3622 5.92495C14.2644 5.88931 14.1602 5.87443 14.0563 5.88125C13.9524 5.88808 13.8511 5.91647 13.7587 5.96461C13.6664 6.01274 13.5851 6.07958 13.52 6.16085C13.4549 6.24213 13.4075 6.33607 13.3807 6.43668C13.3539 6.5373 13.3484 6.64239 13.3644 6.74527C13.3805 6.84815 13.4178 6.94655 13.474 7.03423C13.5301 7.1219 13.6039 7.19691 13.6907 7.2545C13.7774 7.31208 13.8752 7.35097 13.9778 7.3687Z" fill="#667085"/>
</g>
</svg>
