<svg width="65" height="64" viewBox="0 0 65 64" fill="none" xmlns="http://www.w3.org/2000/svg">
<g clip-path="url(#clip0_441918_1642)">
<path d="M34.0826 30.4188C33.5939 29.9301 32.8026 29.9301 32.3139 30.4188C31.8264 30.9063 31.8264 31.6976 32.3139 32.1863C32.8026 32.6738 33.5939 32.6738 34.0826 32.1863C34.5701 31.6976 34.5701 30.9063 34.0826 30.4188Z" fill="#1D1E23"/>
<path d="M49.9914 14.5087C47.5489 12.0663 43.5949 12.0662 41.1523 14.5087C38.7162 16.9448 38.716 20.9098 41.1527 23.3479C43.5897 25.7834 47.5547 25.7844 49.9914 23.3477C52.4336 20.9054 52.4341 16.9513 49.9914 14.5087ZM48.2236 21.5798C46.762 23.0416 44.3828 23.0416 42.9204 21.5801C41.4585 20.1173 41.4584 17.7381 42.9202 16.2765C44.3855 14.8111 46.758 14.8108 48.2236 16.2765C49.689 17.7417 49.6893 20.1143 48.2236 21.5798Z" fill="#1D1E23"/>
<path d="M64.1334 0.366137C63.8879 0.120762 63.5529 -0.0122377 63.2046 0.000887249C62.922 0.0110122 56.1926 0.281512 48.1933 3.10888C41.7833 5.37213 36.4404 8.6125 32.313 12.74C31.3882 13.6649 30.4882 14.6456 29.627 15.6645C25.5461 13.2622 22.2758 14.0155 20.2084 15.1219C15.4483 17.6694 12.502 24.5863 12.502 29.5338C12.5023 30.0393 12.807 30.4952 13.274 30.6886C13.4286 30.7527 13.5911 30.7838 13.7521 30.7838C14.0775 30.7838 14.3971 30.6567 14.6362 30.4177C17.1466 27.9073 20.2429 28.0643 21.2544 28.1973L21.6922 28.6351C20.8307 30.6851 20.1367 32.7236 19.6277 34.7062C19.4439 35.4237 19.5059 36.1829 19.7791 36.8774C18.5756 37.4321 17.4144 38.2464 16.4034 39.2574C13.1858 42.4752 12.5325 50.3169 12.5062 50.6492C12.4775 51.0138 12.6097 51.3728 12.8683 51.6314C13.1037 51.8667 13.4221 51.9975 13.7521 51.9975C13.7848 51.9975 13.8177 51.9963 13.8506 51.9937C14.1828 51.9675 22.0248 51.3142 25.2424 48.0965C26.2531 47.0859 27.0673 45.9249 27.6219 44.7217C28.3572 45.0108 29.1139 45.0464 29.7944 44.872C31.7762 44.3632 33.8144 43.6694 35.8647 42.8078L36.3024 43.2456C36.4353 44.2572 36.5923 47.3535 34.082 49.8637C33.7247 50.2212 33.6177 50.7588 33.8112 51.2258C34.0045 51.6929 34.4603 51.9974 34.9659 51.9974C39.9134 51.9974 46.8303 49.051 49.3778 44.2909C50.4841 42.2238 51.2374 38.9536 48.8351 34.8724C49.8535 34.0117 50.8344 33.1117 51.7596 32.1865C55.8871 28.059 59.1274 22.7161 61.3906 16.3066C64.2181 8.30687 64.4885 1.57738 64.4986 1.29488C64.5111 0.94801 64.3787 0.611636 64.1334 0.366137ZM15.2967 26.8452C16.0732 23.0873 18.3286 18.9637 21.3886 17.326C23.4334 16.2317 25.6686 16.339 28.045 17.6399C26.0204 20.3026 24.2603 23.1713 22.7932 26.2007C22.7746 26.1892 22.5496 25.9063 22.1316 25.8121C21.9597 25.7732 18.6523 25.0618 15.2967 26.8452ZM23.4747 46.3287C21.7559 48.0474 17.7241 48.9539 15.1757 49.324C15.5459 46.7755 16.4526 42.7438 18.1712 41.0252C19.1337 40.0627 20.2497 39.3329 21.3714 38.9219L25.5779 43.1284C25.1669 44.2502 24.4373 45.3662 23.4747 46.3287ZM29.1734 42.4503C28.8117 42.5429 28.3927 42.4069 28.0812 42.0959C26.4641 40.4788 25.8314 39.8462 25.6329 39.6478C25.2689 39.2838 24.3763 38.3912 22.4047 36.4194C22.0929 36.1071 21.9569 35.6882 22.0493 35.3271C22.4497 33.7678 22.9733 32.1681 23.6101 30.553L33.9469 40.8898C32.3315 41.5267 30.732 42.0502 29.1734 42.4503ZM47.1739 43.1113C45.5361 46.1712 41.4126 48.4267 37.6549 49.203C38.853 46.9484 39.1172 44.0783 38.6794 42.3379C38.5778 41.9337 38.314 41.7304 38.2993 41.7066C41.3284 40.2394 44.197 38.4793 46.86 36.4547C48.1609 38.8314 48.268 41.0668 47.1739 43.1113ZM49.9921 30.4187C48.8658 31.545 47.6529 32.6331 46.3871 33.6527C43.3444 36.1027 39.9954 38.1779 36.4224 39.8299L24.6699 28.0777C26.3219 24.5045 28.3972 21.1555 30.8469 18.1131C31.8674 16.8465 32.9554 15.6335 34.0813 14.5077C37.7844 10.8045 42.5636 7.85725 48.2901 5.73575L58.7641 16.2097C56.6429 21.9361 53.6956 26.7153 49.9921 30.4187ZM59.6635 13.5734L50.9265 4.83638C55.6866 3.35788 59.8277 2.80426 61.8947 2.60526C61.6956 4.67263 61.1419 8.81375 59.6635 13.5734Z" fill="#1D1E23"/>
<path d="M30.5467 51.631C30.0583 51.1429 29.2668 51.1431 28.7788 51.6312L25.2439 55.1675C24.7559 55.6557 24.756 56.4472 25.2441 56.9352C25.7325 57.4232 26.524 57.4232 27.012 56.935L30.547 53.3987C31.035 52.9105 31.0348 52.119 30.5467 51.631Z" fill="#1D1E23"/>
<path d="M12.8695 33.9539C12.3815 33.4656 11.5901 33.4656 11.1017 33.9536L7.5655 37.4886C7.07725 37.9766 7.07713 38.7681 7.56512 39.2564C8.053 39.7444 8.84437 39.7449 9.33287 39.2566L12.8691 35.7216C13.3574 35.2336 13.3575 34.4421 12.8695 33.9539Z" fill="#1D1E23"/>
<path d="M21.7079 53.3999C21.22 52.9118 20.4284 52.9118 19.9401 53.3998L11.4726 61.866C10.9844 62.3542 10.9844 63.1457 11.4725 63.6338C11.9604 64.1219 12.752 64.1221 13.2403 63.6339L21.7078 55.1677C22.196 54.6795 22.196 53.888 21.7079 53.3999Z" fill="#1D1E23"/>
<path d="M11.7079 53.3999C11.2199 52.9118 10.4283 52.9118 9.94013 53.3998L1.47265 61.866C0.984399 62.3542 0.984399 63.1457 1.47252 63.6338C1.9604 64.1219 2.75202 64.1221 3.24027 63.6339L11.7078 55.1677C12.196 54.6795 12.196 53.888 11.7079 53.3999Z" fill="#1D1E23"/>
<path d="M11.1001 42.7921C10.6121 42.3041 9.82044 42.3041 9.33231 42.7923L0.866077 51.2597C0.377953 51.748 0.377953 52.5394 0.866202 53.0276C1.35433 53.5157 2.14582 53.5157 2.63395 53.0275L11.1002 44.56C11.5883 44.0718 11.5883 43.2804 11.1001 42.7921Z" fill="#1D1E23"/>
<path d="M39.3849 25.1149C38.8966 24.6267 38.1054 24.6267 37.617 25.1149L35.8495 26.8824C35.3614 27.3705 35.3614 28.162 35.8495 28.6502C36.3377 29.1384 37.1291 29.1384 37.6174 28.6502L39.3849 26.8827C39.873 26.3946 39.873 25.6031 39.3849 25.1149Z" fill="#1D1E23"/>
</g>
<defs>
<clipPath id="clip0_441918_1642">
<rect width="64" height="64" fill="white" transform="translate(0.5)"/>
</clipPath>
</defs>
</svg>
