<svg width="65" height="64" viewBox="0 0 65 64" fill="none" xmlns="http://www.w3.org/2000/svg">
<mask id="mask0_22910_294567" style="mask-type:luminance" maskUnits="userSpaceOnUse" x="0" y="0" width="65" height="64">
<path d="M0.5 64H64.5V0H0.5V64Z" fill="white"/>
</mask>
<g mask="url(#mask0_22910_294567)">
<path fill-rule="evenodd" clip-rule="evenodd" d="M21.3956 8.67828C29.9859 0.0880164 43.2229 -1.01784 53.0113 5.35644C53.5898 5.73317 53.7534 6.50753 53.3767 7.08604C53 7.66455 52.2256 7.82812 51.6471 7.45139C42.8285 1.70867 30.9011 2.70832 23.1634 10.446C14.2789 19.3305 14.2789 33.7351 23.1633 42.6194L22.3063 43.4765L23.1634 42.6194C32.0478 51.5039 46.4522 51.5039 55.3367 42.6194C63.0672 34.8889 64.0722 22.9765 58.3475 14.1604C57.9715 13.5814 58.1361 12.8073 58.7151 12.4313C59.2941 12.0553 60.0682 12.2199 60.4442 12.7989C66.7985 22.5845 65.6867 35.8049 57.1045 44.3872C47.2437 54.248 31.2564 54.248 21.3956 44.3872C11.5348 34.5265 11.5348 18.5391 21.3956 8.67828Z" fill="#1D1E23"/>
<path fill-rule="evenodd" clip-rule="evenodd" d="M19.8555 26.5328C19.8555 15.8233 28.5371 7.14163 39.2466 7.14163C49.9561 7.14163 58.6377 15.8233 58.6377 26.5328C58.6377 37.2422 49.9561 45.9239 39.2466 45.9239C28.5371 45.9239 19.8555 37.2422 19.8555 26.5328ZM39.2466 9.64163C29.9178 9.64163 22.3555 17.204 22.3555 26.5328C22.3555 35.8615 29.9178 43.4239 39.2466 43.4239C48.5754 43.4239 56.1377 35.8615 56.1377 26.5328C56.1377 17.204 48.5754 9.64163 39.2466 9.64163Z" fill="#1D1E23"/>
<path fill-rule="evenodd" clip-rule="evenodd" d="M34.7305 56.7172C33.7639 56.7172 32.9805 57.5007 32.9805 58.4672C32.9805 59.4337 33.7639 60.2172 34.7305 60.2172H43.7305C44.697 60.2172 45.4805 59.4337 45.4805 58.4672C45.4805 57.5007 44.697 56.7172 43.7305 56.7172H34.7305ZM30.4805 58.4672C30.4805 56.12 32.3832 54.2172 34.7305 54.2172H43.7305C46.0777 54.2172 47.9805 56.12 47.9805 58.4672C47.9805 60.8145 46.0777 62.7172 43.7305 62.7172H34.7305C32.3832 62.7172 30.4805 60.8145 30.4805 58.4672Z" fill="#1D1E23"/>
<path fill-rule="evenodd" clip-rule="evenodd" d="M34.957 49.2827C35.6474 49.2827 36.207 49.8424 36.207 50.5327V54.2172H42.2588V50.5327C42.2588 49.8424 42.8184 49.2827 43.5088 49.2827C44.1991 49.2827 44.7588 49.8424 44.7588 50.5327V55.4672C44.7588 56.1576 44.1991 56.7172 43.5088 56.7172H34.957C34.2667 56.7172 33.707 56.1576 33.707 55.4672V50.5327C33.707 49.8424 34.2667 49.2827 34.957 49.2827Z" fill="#1D1E23"/>
<path fill-rule="evenodd" clip-rule="evenodd" d="M40.7333 28.0182C41.2215 27.53 42.0129 27.53 42.5011 28.0182L48.9227 34.4398C49.4109 34.928 49.4109 35.7194 48.9227 36.2076C48.4345 36.6957 47.6431 36.6957 47.1549 36.2076L40.7333 29.786C40.2451 29.2978 40.2451 28.5063 40.7333 28.0182Z" fill="#1D1E23"/>
<path fill-rule="evenodd" clip-rule="evenodd" d="M39.2514 25.1485C38.4869 25.1485 37.8672 25.7682 37.8672 26.5327C37.8672 27.2973 38.4869 27.917 39.2514 27.917C40.016 27.917 40.6357 27.2973 40.6357 26.5327C40.6357 25.7682 40.016 25.1485 39.2514 25.1485ZM35.3672 26.5327C35.3672 24.3875 37.1062 22.6485 39.2514 22.6485C41.3967 22.6485 43.1357 24.3875 43.1357 26.5327C43.1357 28.678 41.3967 30.417 39.2514 30.417C37.1062 30.417 35.3672 28.678 35.3672 26.5327Z" fill="#1D1E23"/>
<path fill-rule="evenodd" clip-rule="evenodd" d="M50.207 26.5175C50.207 25.8271 50.7667 25.2675 51.457 25.2675H52.615C53.3054 25.2675 53.865 25.8271 53.865 26.5175C53.865 27.2078 53.3054 27.7675 52.615 27.7675H51.457C50.7667 27.7675 50.207 27.2078 50.207 26.5175Z" fill="#1D1E23"/>
<path fill-rule="evenodd" clip-rule="evenodd" d="M24.6328 26.548C24.6328 25.8576 25.1925 25.298 25.8828 25.298H27.0408C27.7312 25.298 28.2908 25.8576 28.2908 26.548C28.2908 27.2384 27.7312 27.798 27.0408 27.798H25.8828C25.1925 27.798 24.6328 27.2384 24.6328 26.548Z" fill="#1D1E23"/>
<path fill-rule="evenodd" clip-rule="evenodd" d="M39.2656 37.4896C39.956 37.4896 40.5156 38.0493 40.5156 38.7396V39.8976C40.5156 40.588 39.956 41.1476 39.2656 41.1476C38.5753 41.1476 38.0156 40.588 38.0156 39.8976V38.7396C38.0156 38.0493 38.5753 37.4896 39.2656 37.4896Z" fill="#1D1E23"/>
<path fill-rule="evenodd" clip-rule="evenodd" d="M39.2344 11.9179C39.9247 11.9179 40.4844 12.4776 40.4844 13.1679V14.3259C40.4844 15.0163 39.9247 15.5759 39.2344 15.5759C38.544 15.5759 37.9844 15.0163 37.9844 14.3259V13.1679C37.9844 12.4776 38.544 11.9179 39.2344 11.9179Z" fill="#1D1E23"/>
<path fill-rule="evenodd" clip-rule="evenodd" d="M38.1603 27.6258C38.6485 28.1139 38.6485 28.9054 38.1603 29.3936L34.7667 32.7872C34.2785 33.2753 33.4871 33.2753 32.9989 32.7872C32.5108 32.299 32.5108 31.5076 32.9989 31.0194L36.3926 27.6258C36.8807 27.1376 37.6722 27.1376 38.1603 27.6258Z" fill="#1D1E23"/>
<path fill-rule="evenodd" clip-rule="evenodd" d="M40.2294 27.5116C40.7175 27.0234 41.509 27.0234 41.9972 27.5116L48.7438 34.2581C49.2319 34.7462 49.2319 35.5377 48.7438 36.0259C48.2556 36.514 47.4642 36.514 46.976 36.0259L40.2294 29.2794C39.7412 28.7912 39.7412 27.9998 40.2294 27.5116Z" fill="#1D1E23"/>
<path fill-rule="evenodd" clip-rule="evenodd" d="M5.5 18.8198C5.5 18.1294 6.05964 17.5698 6.75 17.5698H16.3451C17.0355 17.5698 17.5951 18.1294 17.5951 18.8198C17.5951 19.5101 17.0355 20.0698 16.3451 20.0698H6.75C6.05964 20.0698 5.5 19.5101 5.5 18.8198Z" fill="#1D1E23"/>
<path fill-rule="evenodd" clip-rule="evenodd" d="M7.25 26.1243C7.25 25.4339 7.80964 24.8743 8.5 24.8743H15.2501C15.9405 24.8743 16.5001 25.4339 16.5001 26.1243C16.5001 26.8147 15.9405 27.3743 15.2501 27.3743H8.5C7.80964 27.3743 7.25 26.8147 7.25 26.1243Z" fill="#1D1E23"/>
<path fill-rule="evenodd" clip-rule="evenodd" d="M0.5 33.4289C0.5 32.7385 1.05964 32.1789 1.75 32.1789H16.0117C16.7021 32.1789 17.2618 32.7385 17.2618 33.4289C17.2618 34.1192 16.7021 34.6789 16.0117 34.6789H1.75C1.05964 34.6789 0.5 34.1192 0.5 33.4289Z" fill="#1D1E23"/>
<path fill-rule="evenodd" clip-rule="evenodd" d="M9.02344 40.7334C9.02344 40.0431 9.58308 39.4834 10.2734 39.4834H19.1811C19.8714 39.4834 20.4311 40.0431 20.4311 40.7334C20.4311 41.4238 19.8714 41.9834 19.1811 41.9834H10.2734C9.58308 41.9834 9.02344 41.4238 9.02344 40.7334Z" fill="#1D1E23"/>
</g>
</svg>
