<svg width="65" height="56" viewBox="0 0 65 56" fill="none" xmlns="http://www.w3.org/2000/svg">
<g id="Group">
<path id="Vector" d="M64.0876 11.3632L49.5333 0.713715C49.2935 0.537104 48.9874 0.476603 48.6984 0.548679L31.2142 4.98352C30.679 5.11992 30.3558 5.66431 30.4922 6.1994C30.5493 6.42374 30.6826 6.62135 30.8692 6.75835L35.499 10.1382L34.499 15.2079C33.954 18.0377 38.4987 22.5175 44.6234 23.7074C45.6976 23.9148 46.7892 24.0186 47.8832 24.0174C49.5604 24.0279 51.2284 23.7679 52.8229 23.2475C55.2728 22.4326 56.9077 21.0725 57.1927 19.6177L58.1927 14.5629L63.7474 13.158C64.2826 13.0216 64.6059 12.4772 64.4695 11.9421C64.4123 11.7178 64.279 11.5202 64.0924 11.3832L64.0876 11.3632ZM55.243 19.2328C55.128 19.8178 54.0431 20.7327 52.1981 21.3477C49.8685 22.077 47.3932 22.2111 44.9985 21.7377C39.3738 20.6427 36.2339 16.8379 36.499 15.5881L37.304 11.4433L45.4235 17.403C45.5945 17.529 45.8011 17.5972 46.0135 17.598C46.0981 17.5986 46.1824 17.5867 46.2635 17.563L56.043 15.0882L55.243 19.2328ZM46.2435 15.513L33.7691 6.39343L48.7333 2.60357L61.1926 11.7181L46.2435 15.513Z" fill="#1D1E23"/>
<path id="Vector_2" d="M24.9492 24.2075C24.6433 24.3841 24.4532 24.7092 24.4492 25.0625V42.9015C24.4532 43.2549 24.6433 43.5798 24.9492 43.7565C25.0996 43.8495 25.2725 43.8996 25.4492 43.9015C25.6108 43.903 25.7703 43.8653 25.9141 43.7915L42.9633 34.8669C43.4521 34.6098 43.6398 34.0051 43.3826 33.5164C43.2885 33.3374 43.1422 33.1913 42.9633 33.0971L25.9292 24.1725C25.6189 24.0123 25.2474 24.0255 24.9492 24.2075ZM26.4492 26.7074L40.3435 33.982L26.4643 41.2515L26.4492 26.7074Z" fill="#1D1E23"/>
<path id="Vector_3" d="M61.4969 49.4813H56.3622C56.4511 49.2015 56.4965 48.9098 56.4971 48.6163V25.4824C56.4971 24.9302 56.0494 24.4824 55.4971 24.4824C54.9449 24.4824 54.4971 24.9302 54.4971 25.4824V48.6162C54.4889 49.1021 54.0883 49.4894 53.6024 49.4811C53.6023 49.4811 53.6023 49.4811 53.6021 49.4811H9.39451C8.90859 49.4895 8.50788 49.1024 8.49952 48.6165C8.49952 48.6163 8.49952 48.6163 8.49952 48.6162V18.3477C8.50776 17.8618 8.90835 17.4746 9.39427 17.4828H9.39451H31.4983C32.0506 17.4828 32.4983 17.0351 32.4983 16.4828C32.4983 15.9305 32.0506 15.4828 31.4983 15.4828H9.39451C7.80513 15.4773 6.51062 16.7583 6.49964 18.3476V48.6161C6.50024 48.9097 6.5457 49.2013 6.63461 49.481H1.5C0.947733 49.481 0.5 49.9287 0.5 50.481V50.731C0.5 52.9809 2.26993 55.4808 4.64475 55.4808H58.352C60.7268 55.4808 62.4968 52.9809 62.4968 50.731V50.481C62.4968 49.929 62.049 49.4813 61.4969 49.4813ZM58.352 53.481H4.64475C3.77983 53.481 2.89988 52.5611 2.60489 51.4811H60.3919C60.0969 52.5611 59.2169 53.481 58.352 53.481Z" fill="#1D1E23"/>
</g>
</svg>
